solid JSxCAD
facet normal 1 0 0
outer loop
vertex 0 -0.3 0
vertex 0 0.3 0.25
vertex 0 -0.3 0.25
endloop
endfacet
facet normal 1 0 0
outer loop
vertex 0 0.3 0.25
vertex 0 -0.3 0
vertex 0 0.3 0
endloop
endfacet
facet normal 0 -1 0
outer loop
vertex 0 0.3 0.25
vertex 1.25 0.3 0
vertex 1.25 0.3 0.25
endloop
endfacet
facet normal 0 -1 0
outer loop
vertex 1.25 0.3 0
vertex 0 0.3 0.25
vertex 0 0.3 0
endloop
endfacet
facet normal 0 1 0
outer loop
vertex 0 -0.3 0
vertex 1.25 -0.3 0.25
vertex 1.25 -0.3 0
endloop
endfacet
facet normal 0 1 0
outer loop
vertex 1.25 -0.3 0.25
vertex 0 -0.3 0
vertex 0 -0.3 0.25
endloop
endfacet
facet normal 0 0 -1
outer loop
vertex 1.25 -0.3 0.25
vertex 0 0.3 0.25
vertex 1.25 0.3 0.25
endloop
endfacet
facet normal 0 0 -1
outer loop
vertex 0 0.3 0.25
vertex 1.25 -0.3 0.25
vertex 0 -0.3 0.25
endloop
endfacet
facet normal -1 0 0
outer loop
vertex -1.25 24.32 7.5
vertex -1.25 0.3 0
vertex -1.25 -24.32 7.5
endloop
endfacet
facet normal -0.9999999999999999 0 0
outer loop
vertex -1.25 0.3 0
vertex -1.25 24.32 7.5
vertex -1.25 24.32 0
endloop
endfacet
facet normal -1 0 0
outer loop
vertex -1.25 0.3 0
vertex -1.25 -24.32 0
vertex -1.25 -24.32 7.5
endloop
endfacet
facet normal 0 1 0
outer loop
vertex -1.25 24.32 0
vertex 1.25 24.32 7.5
vertex 1.25 24.32 0
endloop
endfacet
facet normal 0 1 0
outer loop
vertex 1.25 24.32 7.5
vertex -1.25 24.32 0
vertex -1.25 24.32 7.5
endloop
endfacet
facet normal 0 -1 0
outer loop
vertex -1.25 -24.32 7.5
vertex 1.25 -24.32 0
vertex 1.25 -24.32 7.5
endloop
endfacet
facet normal 0 -1 0
outer loop
vertex 1.25 -24.32 0
vertex -1.25 -24.32 7.5
vertex -1.25 -24.32 0
endloop
endfacet
facet normal 0 0 1
outer loop
vertex -1.25 24.32 7.5
vertex 1.25 0.3 7.5
vertex 1.25 24.32 7.5
endloop
endfacet
facet normal 0 0 1
outer loop
vertex -1.25 24.32 7.5
vertex 1.25 -24.32 7.5
vertex 1.25 0.3 7.5
endloop
endfacet
facet normal 0 0 0.9999999999999999
outer loop
vertex 1.25 -24.32 7.5
vertex -1.25 24.32 7.5
vertex -1.25 -24.32 7.5
endloop
endfacet
facet normal 0 0 -1
outer loop
vertex 1.25 -24.32 0
vertex 0 -0.3 0
vertex 1.25 -0.3 0
endloop
endfacet
facet normal 0 0 -1
outer loop
vertex -1.25 -24.32 0
vertex 0 -0.3 0
vertex 1.25 -24.32 0
endloop
endfacet
facet normal 0 0 -1
outer loop
vertex 0 -0.3 0
vertex -1.25 -24.32 0
vertex -1.25 -0.3 0
endloop
endfacet
facet normal 0 0 -1
outer loop
vertex 0 -0.3 0
vertex -1.25 0.3 0
vertex 0 0.3 0
endloop
endfacet
facet normal 0 0 -1
outer loop
vertex -1.25 0.3 0
vertex 0 -0.3 0
vertex -1.25 -0.3 0
endloop
endfacet
facet normal 0 0 -1
outer loop
vertex 0 0.3 0
vertex 1.25 24.32 0
vertex 1.25 0.3 0
endloop
endfacet
facet normal 0 0 -1
outer loop
vertex -1.25 0.3 0
vertex 1.25 24.32 0
vertex 0 0.3 0
endloop
endfacet
facet normal 0 0 -1
outer loop
vertex 1.25 24.32 0
vertex -1.25 0.3 0
vertex -1.25 24.32 0
endloop
endfacet
facet normal 1 0 0
outer loop
vertex 1.25 -24.32 7.5
vertex 1.25 -0.3 0.25
vertex 1.25 -0.3 7.5
endloop
endfacet
facet normal 0.9999999999999999 0 0
outer loop
vertex 1.25 -24.32 0
vertex 1.25 -0.3 0.25
vertex 1.25 -24.32 7.5
endloop
endfacet
facet normal 1 0 0
outer loop
vertex 1.25 -0.3 0.25
vertex 1.25 -24.32 0
vertex 1.25 -0.3 0
endloop
endfacet
facet normal 1 0 0
outer loop
vertex 1.25 0.3 0.25
vertex 1.25 24.32 7.5
vertex 1.25 0.3 7.5
endloop
endfacet
facet normal 0.9999999999999999 0 0
outer loop
vertex 1.25 0.3 0.25
vertex 1.25 24.32 0
vertex 1.25 24.32 7.5
endloop
endfacet
facet normal 1 0 0
outer loop
vertex 1.25 24.32 0
vertex 1.25 0.3 0.25
vertex 1.25 0.3 0
endloop
endfacet
facet normal 1 0 0
outer loop
vertex 1.25 -0.3 0.25
vertex 1.25 0.3 7.5
vertex 1.25 -0.3 7.5
endloop
endfacet
facet normal 1 0 0
outer loop
vertex 1.25 0.3 7.5
vertex 1.25 -0.3 0.25
vertex 1.25 0.3 0.25
endloop
endfacet
facet normal -1 0 0
outer loop
vertex 0 0.3 0
vertex 0 -0.3 0.25
vertex 0 0.3 0.25
endloop
endfacet
facet normal -1 0 0
outer loop
vertex 0 -0.3 0.25
vertex 0 0.3 0
vertex 0 -0.3 0
endloop
endfacet
facet normal 0 1 0
outer loop
vertex 1.25 0.3 0
vertex 2.7 0.3 0.25
vertex 2.7 0.3 0
endloop
endfacet
facet normal 0 1 0
outer loop
vertex 1.25 0.3 0
vertex 1.25 0.3 0.25
vertex 2.7 0.3 0.25
endloop
endfacet
facet normal 0 1 0
outer loop
vertex 0 0.3 0
vertex 1.25 0.3 0.25
vertex 1.25 0.3 0
endloop
endfacet
facet normal 0 1 0
outer loop
vertex 1.25 0.3 0.25
vertex 0 0.3 0
vertex 0 0.3 0.25
endloop
endfacet
facet normal 1 0 0
outer loop
vertex 2.7 -0.3 0.25
vertex 2.7 0.3 0
vertex 2.7 0.3 0.25
endloop
endfacet
facet normal 1 0 0
outer loop
vertex 2.7 0.3 0
vertex 2.7 -0.3 0.25
vertex 2.7 -0.3 0
endloop
endfacet
facet normal 0 -1 0
outer loop
vertex 1.25 -0.3 0.25
vertex 2.7 -0.3 0
vertex 2.7 -0.3 0.25
endloop
endfacet
facet normal 0 -1 0
outer loop
vertex 1.25 -0.3 0.25
vertex 1.25 -0.3 0
vertex 2.7 -0.3 0
endloop
endfacet
facet normal 0 -1 0
outer loop
vertex 0 -0.3 0.25
vertex 1.25 -0.3 0
vertex 1.25 -0.3 0.25
endloop
endfacet
facet normal 0 -1 0
outer loop
vertex 1.25 -0.3 0
vertex 0 -0.3 0.25
vertex 0 -0.3 0
endloop
endfacet
facet normal 0 0 1
outer loop
vertex 1.25 0.3 0.25
vertex 2.7 -0.3 0.25
vertex 2.7 0.3 0.25
endloop
endfacet
facet normal 0 0 1
outer loop
vertex 1.25 0.3 0.25
vertex 1.25 -0.3 0.25
vertex 2.7 -0.3 0.25
endloop
endfacet
facet normal 0 0 1
outer loop
vertex 0 0.3 0.25
vertex 1.25 -0.3 0.25
vertex 1.25 0.3 0.25
endloop
endfacet
facet normal 0 0 1
outer loop
vertex 1.25 -0.3 0.25
vertex 0 0.3 0.25
vertex 0 -0.3 0.25
endloop
endfacet
facet normal 0 0 -1
outer loop
vertex 1.25 -0.3 0
vertex 2.7 0.3 0
vertex 2.7 -0.3 0
endloop
endfacet
facet normal 0 0 -1
outer loop
vertex 1.25 -0.3 0
vertex 1.25 0.3 0
vertex 2.7 0.3 0
endloop
endfacet
facet normal 0 0 -1
outer loop
vertex 1.25 -0.3 0
vertex 0 0.3 0
vertex 1.25 0.3 0
endloop
endfacet
facet normal 0 0 -1
outer loop
vertex 0 0.3 0
vertex 1.25 -0.3 0
vertex 0 -0.3 0
endloop
endfacet
endsolid JSxCAD
