solid JSxCAD
facet normal 0 -1 0
outer loop
vertex -1.25 7.92 0.25
vertex 0 7.92 0
vertex 0 7.92 0.25
endloop
endfacet
facet normal 0 -1 0
outer loop
vertex 0 7.92 0
vertex -1.25 7.92 0.25
vertex -1.25 7.92 0
endloop
endfacet
facet normal 0 1 0
outer loop
vertex -1.25 7.32 0
vertex 0 7.32 0.25
vertex 0 7.32 0
endloop
endfacet
facet normal 0 1 0
outer loop
vertex 0 7.32 0.25
vertex -1.25 7.32 0
vertex -1.25 7.32 0.25
endloop
endfacet
facet normal 0 0 -1
outer loop
vertex -1.25 7.32 0.25
vertex 0 7.92 0.25
vertex 0 7.32 0.25
endloop
endfacet
facet normal 0 0 -1
outer loop
vertex 0 7.92 0.25
vertex -1.25 7.32 0.25
vertex -1.25 7.92 0.25
endloop
endfacet
facet normal 0 0 -1
outer loop
vertex 1.25 4.78 0.25
vertex 0 5.38 0.25
vertex 1.25 5.38 0.25
endloop
endfacet
facet normal 0 0 -1
outer loop
vertex 0 5.38 0.25
vertex 1.25 4.78 0.25
vertex 0 4.78 0.25
endloop
endfacet
facet normal 0 0 -0.9999999999999999
outer loop
vertex -1.25 2.24 0.25
vertex 0 2.84 0.25
vertex 0 2.24 0.25
endloop
endfacet
facet normal 0 0 -1
outer loop
vertex 0 2.84 0.25
vertex -1.25 2.24 0.25
vertex -1.25 2.84 0.25
endloop
endfacet
facet normal 0 0 -1
outer loop
vertex 1.25 -0.3 0.25
vertex 0 0.3 0.25
vertex 1.25 0.3 0.25
endloop
endfacet
facet normal 0 0 -1
outer loop
vertex 0 0.3 0.25
vertex 1.25 -0.3 0.25
vertex 0 -0.3 0.25
endloop
endfacet
facet normal -1 0 0
outer loop
vertex 0 2.24 0
vertex 0 2.84 0.25
vertex 0 2.84 0
endloop
endfacet
facet normal -1 0 0
outer loop
vertex 0 2.84 0.25
vertex 0 2.24 0
vertex 0 2.24 0.25
endloop
endfacet
facet normal -1 0 0
outer loop
vertex 0 7.32 0
vertex 0 7.92 0.25
vertex 0 7.92 0
endloop
endfacet
facet normal -1 0 0
outer loop
vertex 0 7.92 0.25
vertex 0 7.32 0
vertex 0 7.32 0.25
endloop
endfacet
facet normal 0 -1 0
outer loop
vertex -1.25 2.84 0.25
vertex 0 2.84 0
vertex 0 2.84 0.25
endloop
endfacet
facet normal 0 -1 0
outer loop
vertex 0 2.84 0
vertex -1.25 2.84 0.25
vertex -1.25 2.84 0
endloop
endfacet
facet normal 0 1 0
outer loop
vertex -1.25 2.24 0
vertex 0 2.24 0.25
vertex 0 2.24 0
endloop
endfacet
facet normal 0 1 0
outer loop
vertex 0 2.24 0.25
vertex -1.25 2.24 0
vertex -1.25 2.24 0.25
endloop
endfacet
facet normal 1 0 0
outer loop
vertex 0 4.78 0
vertex 0 5.38 0.25
vertex 0 4.78 0.25
endloop
endfacet
facet normal 1 0 0
outer loop
vertex 0 5.38 0.25
vertex 0 4.78 0
vertex 0 5.38 0
endloop
endfacet
facet normal 1 0 0
outer loop
vertex 0 -0.3 0
vertex 0 0.3 0.25
vertex 0 -0.3 0.25
endloop
endfacet
facet normal 1 0 0
outer loop
vertex 0 0.3 0.25
vertex 0 -0.3 0
vertex 0 0.3 0
endloop
endfacet
facet normal 0 -1 0
outer loop
vertex 0 5.38 0.25
vertex 1.25 5.38 0
vertex 1.25 5.38 0.25
endloop
endfacet
facet normal 0 -1 0
outer loop
vertex 1.25 5.38 0
vertex 0 5.38 0.25
vertex 0 5.38 0
endloop
endfacet
facet normal 0 1 0
outer loop
vertex 0 4.78 0
vertex 1.25 4.78 0.25
vertex 1.25 4.78 0
endloop
endfacet
facet normal 0 1 0
outer loop
vertex 1.25 4.78 0.25
vertex 0 4.78 0
vertex 0 4.78 0.25
endloop
endfacet
facet normal 0 -1 0
outer loop
vertex 0 0.3 0.25
vertex 1.25 0.3 0
vertex 1.25 0.3 0.25
endloop
endfacet
facet normal 0 -1 0
outer loop
vertex 1.25 0.3 0
vertex 0 0.3 0.25
vertex 0 0.3 0
endloop
endfacet
facet normal 0 1 0
outer loop
vertex 1.25 -0.3 0
vertex 0 -0.3 0.25
vertex 1.25 -0.3 0.25
endloop
endfacet
facet normal 0 1 0
outer loop
vertex 0 -0.3 0.25
vertex 1.25 -0.3 0
vertex 0 -0.3 0
endloop
endfacet
facet normal -1 0 0
outer loop
vertex -1.25 24.32 7.5
vertex -1.25 7.92 0.25
vertex -1.25 7.92 7.5
endloop
endfacet
facet normal -1 0 0
outer loop
vertex -1.25 24.32 0
vertex -1.25 7.92 0.25
vertex -1.25 24.32 7.5
endloop
endfacet
facet normal -1 0 0
outer loop
vertex -1.25 7.92 0.25
vertex -1.25 24.32 0
vertex -1.25 7.92 0
endloop
endfacet
facet normal -1 0 0
outer loop
vertex -1.25 7.32 0.25
vertex -1.25 2.84 7.5
vertex -1.25 7.32 7.5
endloop
endfacet
facet normal -1 0 0
outer loop
vertex -1.25 7.32 0.25
vertex -1.25 2.84 0.25
vertex -1.25 2.84 7.5
endloop
endfacet
facet normal -1 0 0
outer loop
vertex -1.25 7.32 0
vertex -1.25 2.84 0.25
vertex -1.25 7.32 0.25
endloop
endfacet
facet normal -1 0 0
outer loop
vertex -1.25 5.38 0
vertex -1.25 2.84 0.25
vertex -1.25 7.32 0
endloop
endfacet
facet normal -1 0 0
outer loop
vertex -1.25 4.78 0
vertex -1.25 2.84 0.25
vertex -1.25 5.38 0
endloop
endfacet
facet normal -1 0 0
outer loop
vertex -1.25 2.84 0.25
vertex -1.25 4.78 0
vertex -1.25 2.84 0
endloop
endfacet
facet normal -1 0 0
outer loop
vertex -1.25 7.92 0.25
vertex -1.25 7.32 7.5
vertex -1.25 7.92 7.5
endloop
endfacet
facet normal -1 0 0
outer loop
vertex -1.25 7.32 7.5
vertex -1.25 7.92 0.25
vertex -1.25 7.32 0.25
endloop
endfacet
facet normal -1 0 0
outer loop
vertex -1.25 2.24 0.25
vertex -1.25 -24.32 7.5
vertex -1.25 2.24 7.5
endloop
endfacet
facet normal -0.9999999999999999 0 0
outer loop
vertex -1.25 2.24 0
vertex -1.25 -24.32 7.5
vertex -1.25 2.24 0.25
endloop
endfacet
facet normal -1 0 0
outer loop
vertex -1.25 0.3 0
vertex -1.25 -24.32 7.5
vertex -1.25 2.24 0
endloop
endfacet
facet normal -1 0 0
outer loop
vertex -1.25 -24.32 7.5
vertex -1.25 0.3 0
vertex -1.25 -24.32 0
endloop
endfacet
facet normal -1 0 0
outer loop
vertex -1.25 2.84 0.25
vertex -1.25 2.24 7.5
vertex -1.25 2.84 7.5
endloop
endfacet
facet normal -1 0 0
outer loop
vertex -1.25 2.24 7.5
vertex -1.25 2.84 0.25
vertex -1.25 2.24 0.25
endloop
endfacet
facet normal 0 1 0
outer loop
vertex -1.25 24.32 0
vertex 1.25 24.32 7.5
vertex 1.25 24.32 0
endloop
endfacet
facet normal 0 1 0
outer loop
vertex 1.25 24.32 7.5
vertex -1.25 24.32 0
vertex -1.25 24.32 7.5
endloop
endfacet
facet normal 0 0 1
outer loop
vertex -1.25 24.32 7.5
vertex 1.25 5.38 7.5
vertex 1.25 24.32 7.5
endloop
endfacet
facet normal 0 0 1
outer loop
vertex -1.25 24.32 7.5
vertex 1.25 -24.32 7.5
vertex 1.25 5.38 7.5
endloop
endfacet
facet normal 0 0 1
outer loop
vertex -1.25 7.92 7.5
vertex 1.25 -24.32 7.5
vertex -1.25 24.32 7.5
endloop
endfacet
facet normal 0 0 1
outer loop
vertex -1.25 7.32 7.5
vertex 1.25 -24.32 7.5
vertex -1.25 7.92 7.5
endloop
endfacet
facet normal -5.0753052554292856e-15 0 1
outer loop
vertex -1.25 2.84 7.5
vertex 1.25 -24.32 7.5
vertex -1.25 7.32 7.5
endloop
endfacet
facet normal 3.789561257387219e-14 0 1
outer loop
vertex -1.25 2.24 7.5
vertex 1.25 -24.32 7.5
vertex -1.25 2.84 7.5
endloop
endfacet
facet normal 0 0 1
outer loop
vertex 1.25 -24.32 7.5
vertex -1.25 2.24 7.5
vertex -1.25 -24.32 7.5
endloop
endfacet
facet normal 0 0 -1
outer loop
vertex 0 5.38 0
vertex 1.25 7.32 0
vertex 1.25 5.38 0
endloop
endfacet
facet normal 0 0 -1
outer loop
vertex 0 5.38 0
vertex 0 7.32 0
vertex 1.25 7.32 0
endloop
endfacet
facet normal 0 0 -1
outer loop
vertex -1.25 5.38 0
vertex 0 7.32 0
vertex 0 5.38 0
endloop
endfacet
facet normal 0 0 -1
outer loop
vertex 0 7.32 0
vertex -1.25 5.38 0
vertex -1.25 7.32 0
endloop
endfacet
facet normal 0 0 -1
outer loop
vertex -1.25 4.78 0
vertex 0 5.38 0
vertex 0 4.78 0
endloop
endfacet
facet normal 0 0 -1
outer loop
vertex 0 5.38 0
vertex -1.25 4.78 0
vertex -1.25 5.38 0
endloop
endfacet
facet normal 0 0 -1
outer loop
vertex 1.25 0.3 0
vertex 0 2.24 0
vertex 1.25 2.24 0
endloop
endfacet
facet normal 0 0 -1
outer loop
vertex 0 0.3 0
vertex 0 2.24 0
vertex 1.25 0.3 0
endloop
endfacet
facet normal 0 0 -1
outer loop
vertex -1.25 0.3 0
vertex 0 2.24 0
vertex 0 0.3 0
endloop
endfacet
facet normal 0 0 -1
outer loop
vertex 0 2.24 0
vertex -1.25 0.3 0
vertex -1.25 2.24 0
endloop
endfacet
facet normal 0 0 -1
outer loop
vertex 0 7.32 0
vertex 1.25 7.92 0
vertex 1.25 7.32 0
endloop
endfacet
facet normal 0 0 -1
outer loop
vertex 1.25 7.92 0
vertex 0 7.32 0
vertex 0 7.92 0
endloop
endfacet
facet normal 0 0 -1
outer loop
vertex 0 2.84 0
vertex 1.25 4.78 0
vertex 1.25 2.84 0
endloop
endfacet
facet normal 0 0 -1
outer loop
vertex 0 2.84 0
vertex 0 4.78 0
vertex 1.25 4.78 0
endloop
endfacet
facet normal 0 0 -1
outer loop
vertex -1.25 2.84 0
vertex 0 4.78 0
vertex 0 2.84 0
endloop
endfacet
facet normal 0 0 -1
outer loop
vertex 0 4.78 0
vertex -1.25 2.84 0
vertex -1.25 4.78 0
endloop
endfacet
facet normal 0 0 -0.9999999999999999
outer loop
vertex 0 2.24 0
vertex 1.25 2.84 0
vertex 1.25 2.24 0
endloop
endfacet
facet normal 0 0 -1
outer loop
vertex 1.25 2.84 0
vertex 0 2.24 0
vertex 0 2.84 0
endloop
endfacet
facet normal 0 0 -1
outer loop
vertex 0 7.92 0
vertex 1.25 24.32 0
vertex 1.25 7.92 0
endloop
endfacet
facet normal 0 0 -1
outer loop
vertex 0 7.92 0
vertex -1.25 24.32 0
vertex 1.25 24.32 0
endloop
endfacet
facet normal 0 0 -1
outer loop
vertex -1.25 24.32 0
vertex 0 7.92 0
vertex -1.25 7.92 0
endloop
endfacet
facet normal 0 0 -1
outer loop
vertex 1.25 -24.32 0
vertex 0 -0.3 0
vertex 1.25 -0.3 0
endloop
endfacet
facet normal 0 0 -1
outer loop
vertex 1.25 -24.32 0
vertex -1.25 -0.3 0
vertex 0 -0.3 0
endloop
endfacet
facet normal 0 0 -1
outer loop
vertex -1.25 -0.3 0
vertex 1.25 -24.32 0
vertex -1.25 -24.32 0
endloop
endfacet
facet normal 0 0 -1
outer loop
vertex -1.25 -0.3 0
vertex 0 0.3 0
vertex 0 -0.3 0
endloop
endfacet
facet normal 0 0 -1
outer loop
vertex 0 0.3 0
vertex -1.25 -0.3 0
vertex -1.25 0.3 0
endloop
endfacet
facet normal 0 -1 0
outer loop
vertex -1.25 -24.32 7.5
vertex 1.25 -24.32 0
vertex 1.25 -24.32 7.5
endloop
endfacet
facet normal 0 -1 0
outer loop
vertex 1.25 -24.32 0
vertex -1.25 -24.32 7.5
vertex -1.25 -24.32 0
endloop
endfacet
facet normal 1 0 0
outer loop
vertex 1.25 -24.32 7.5
vertex 1.25 -0.3 0.25
vertex 1.25 -0.3 7.5
endloop
endfacet
facet normal 0.9999999999999999 0 0
outer loop
vertex 1.25 -24.32 0
vertex 1.25 -0.3 0.25
vertex 1.25 -24.32 7.5
endloop
endfacet
facet normal 1 0 0
outer loop
vertex 1.25 -0.3 0.25
vertex 1.25 -24.32 0
vertex 1.25 -0.3 0
endloop
endfacet
facet normal 1 0 0
outer loop
vertex 1.25 0.3 0.25
vertex 1.25 4.78 7.5
vertex 1.25 0.3 7.5
endloop
endfacet
facet normal 1 0 0
outer loop
vertex 1.25 0.3 0.25
vertex 1.25 4.78 0.25
vertex 1.25 4.78 7.5
endloop
endfacet
facet normal 1 0 0
outer loop
vertex 1.25 0.3 0
vertex 1.25 4.78 0.25
vertex 1.25 0.3 0.25
endloop
endfacet
facet normal 1 0 0
outer loop
vertex 1.25 2.24 0
vertex 1.25 4.78 0.25
vertex 1.25 0.3 0
endloop
endfacet
facet normal 1 0 0
outer loop
vertex 1.25 2.84 0
vertex 1.25 4.78 0.25
vertex 1.25 2.24 0
endloop
endfacet
facet normal 1 0 0
outer loop
vertex 1.25 4.78 0.25
vertex 1.25 2.84 0
vertex 1.25 4.78 0
endloop
endfacet
facet normal 1 0 0
outer loop
vertex 1.25 -0.3 0.25
vertex 1.25 0.3 7.5
vertex 1.25 -0.3 7.5
endloop
endfacet
facet normal 1 0 0
outer loop
vertex 1.25 0.3 7.5
vertex 1.25 -0.3 0.25
vertex 1.25 0.3 0.25
endloop
endfacet
facet normal 1 0 0
outer loop
vertex 1.25 5.38 0.25
vertex 1.25 24.32 7.5
vertex 1.25 5.38 7.5
endloop
endfacet
facet normal 1 0 0
outer loop
vertex 1.25 5.38 0
vertex 1.25 24.32 7.5
vertex 1.25 5.38 0.25
endloop
endfacet
facet normal 1 0 0
outer loop
vertex 1.25 7.32 0
vertex 1.25 24.32 7.5
vertex 1.25 5.38 0
endloop
endfacet
facet normal 1 0 0
outer loop
vertex 1.25 7.92 0
vertex 1.25 24.32 7.5
vertex 1.25 7.32 0
endloop
endfacet
facet normal 1 0 0
outer loop
vertex 1.25 24.32 7.5
vertex 1.25 7.92 0
vertex 1.25 24.32 0
endloop
endfacet
facet normal 1 0 0
outer loop
vertex 1.25 4.78 0.25
vertex 1.25 5.38 7.5
vertex 1.25 4.78 7.5
endloop
endfacet
facet normal 1 0 0
outer loop
vertex 1.25 5.38 7.5
vertex 1.25 4.78 0.25
vertex 1.25 5.38 0.25
endloop
endfacet
facet normal -1 0 0
outer loop
vertex -2.7 7.32 0
vertex -2.7 7.92 0.25
vertex -2.7 7.92 0
endloop
endfacet
facet normal -1 0 0
outer loop
vertex -2.7 7.92 0.25
vertex -2.7 7.32 0
vertex -2.7 7.32 0.25
endloop
endfacet
facet normal 0 1 0
outer loop
vertex -1.25 7.92 0
vertex 0 7.92 0.25
vertex 0 7.92 0
endloop
endfacet
facet normal 0 1 0
outer loop
vertex -1.25 7.92 0
vertex -1.25 7.92 0.25
vertex 0 7.92 0.25
endloop
endfacet
facet normal 0 1 0
outer loop
vertex -2.7 7.92 0
vertex -1.25 7.92 0.25
vertex -1.25 7.92 0
endloop
endfacet
facet normal 0 1 0
outer loop
vertex -1.25 7.92 0.25
vertex -2.7 7.92 0
vertex -2.7 7.92 0.25
endloop
endfacet
facet normal 1 0 0
outer loop
vertex 0 7.32 0.25
vertex 0 7.92 0
vertex 0 7.92 0.25
endloop
endfacet
facet normal 1 0 0
outer loop
vertex 0 7.92 0
vertex 0 7.32 0.25
vertex 0 7.32 0
endloop
endfacet
facet normal 0 -1 0
outer loop
vertex -1.25 7.32 0.25
vertex 0 7.32 0
vertex 0 7.32 0.25
endloop
endfacet
facet normal 0 -1 0
outer loop
vertex -1.25 7.32 0.25
vertex -1.25 7.32 0
vertex 0 7.32 0
endloop
endfacet
facet normal 0 -1 0
outer loop
vertex -2.7 7.32 0.25
vertex -1.25 7.32 0
vertex -1.25 7.32 0.25
endloop
endfacet
facet normal 0 -1 0
outer loop
vertex -1.25 7.32 0
vertex -2.7 7.32 0.25
vertex -2.7 7.32 0
endloop
endfacet
facet normal 0 0 1
outer loop
vertex -1.25 7.92 0.25
vertex 0 7.32 0.25
vertex 0 7.92 0.25
endloop
endfacet
facet normal 0 0 1
outer loop
vertex -1.25 7.92 0.25
vertex -1.25 7.32 0.25
vertex 0 7.32 0.25
endloop
endfacet
facet normal 0 0 0.9999999999999999
outer loop
vertex -2.7 7.92 0.25
vertex -1.25 7.32 0.25
vertex -1.25 7.92 0.25
endloop
endfacet
facet normal 0 0 1
outer loop
vertex -1.25 7.32 0.25
vertex -2.7 7.92 0.25
vertex -2.7 7.32 0.25
endloop
endfacet
facet normal 0 0 -1
outer loop
vertex -1.25 7.32 0
vertex 0 7.92 0
vertex 0 7.32 0
endloop
endfacet
facet normal 0 0 -1
outer loop
vertex -1.25 7.32 0
vertex -1.25 7.92 0
vertex 0 7.92 0
endloop
endfacet
facet normal 0 0 -1
outer loop
vertex -2.7 7.32 0
vertex -1.25 7.92 0
vertex -1.25 7.32 0
endloop
endfacet
facet normal 0 0 -0.9999999999999999
outer loop
vertex -1.25 7.92 0
vertex -2.7 7.32 0
vertex -2.7 7.92 0
endloop
endfacet
facet normal -1 0 0
outer loop
vertex -2.7 2.24 0
vertex -2.7 2.84 0.25
vertex -2.7 2.84 0
endloop
endfacet
facet normal -1 0 0
outer loop
vertex -2.7 2.84 0.25
vertex -2.7 2.24 0
vertex -2.7 2.24 0.25
endloop
endfacet
facet normal 0 1 0
outer loop
vertex -1.25 2.84 0
vertex 0 2.84 0.25
vertex 0 2.84 0
endloop
endfacet
facet normal 0 1 0
outer loop
vertex -1.25 2.84 0
vertex -1.25 2.84 0.25
vertex 0 2.84 0.25
endloop
endfacet
facet normal 0 1 0
outer loop
vertex -2.7 2.84 0
vertex -1.25 2.84 0.25
vertex -1.25 2.84 0
endloop
endfacet
facet normal 0 1 0
outer loop
vertex -1.25 2.84 0.25
vertex -2.7 2.84 0
vertex -2.7 2.84 0.25
endloop
endfacet
facet normal 1 0 0
outer loop
vertex 0 2.24 0.25
vertex 0 2.84 0
vertex 0 2.84 0.25
endloop
endfacet
facet normal 1 0 0
outer loop
vertex 0 2.84 0
vertex 0 2.24 0.25
vertex 0 2.24 0
endloop
endfacet
facet normal 0 -1 0
outer loop
vertex -1.25 2.24 0.25
vertex 0 2.24 0
vertex 0 2.24 0.25
endloop
endfacet
facet normal 0 -1 0
outer loop
vertex -1.25 2.24 0.25
vertex -1.25 2.24 0
vertex 0 2.24 0
endloop
endfacet
facet normal 0 -1 0
outer loop
vertex -2.7 2.24 0.25
vertex -1.25 2.24 0
vertex -1.25 2.24 0.25
endloop
endfacet
facet normal 0 -1 0
outer loop
vertex -1.25 2.24 0
vertex -2.7 2.24 0.25
vertex -2.7 2.24 0
endloop
endfacet
facet normal 0 0 1
outer loop
vertex -1.25 2.84 0.25
vertex 0 2.24 0.25
vertex 0 2.84 0.25
endloop
endfacet
facet normal 0 0 0.9999999999999999
outer loop
vertex -1.25 2.84 0.25
vertex -1.25 2.24 0.25
vertex 0 2.24 0.25
endloop
endfacet
facet normal 0 0 1
outer loop
vertex -2.7 2.84 0.25
vertex -1.25 2.24 0.25
vertex -1.25 2.84 0.25
endloop
endfacet
facet normal 0 0 1
outer loop
vertex -1.25 2.24 0.25
vertex -2.7 2.84 0.25
vertex -2.7 2.24 0.25
endloop
endfacet
facet normal 0 0 -0.9999999999999999
outer loop
vertex -1.25 2.24 0
vertex 0 2.84 0
vertex 0 2.24 0
endloop
endfacet
facet normal 0 0 -1
outer loop
vertex -1.25 2.24 0
vertex -1.25 2.84 0
vertex 0 2.84 0
endloop
endfacet
facet normal 0 0 -1
outer loop
vertex -2.7 2.24 0
vertex -1.25 2.84 0
vertex -1.25 2.24 0
endloop
endfacet
facet normal 0 0 -1
outer loop
vertex -1.25 2.84 0
vertex -2.7 2.24 0
vertex -2.7 2.84 0
endloop
endfacet
facet normal -1 0 0
outer loop
vertex 0 5.38 0
vertex 0 4.78 0.25
vertex 0 5.38 0.25
endloop
endfacet
facet normal -1 0 0
outer loop
vertex 0 4.78 0.25
vertex 0 5.38 0
vertex 0 4.78 0
endloop
endfacet
facet normal 0 1 0
outer loop
vertex 1.25 5.38 0
vertex 2.7 5.38 0.25
vertex 2.7 5.38 0
endloop
endfacet
facet normal 0 1 0
outer loop
vertex 1.25 5.38 0
vertex 1.25 5.38 0.25
vertex 2.7 5.38 0.25
endloop
endfacet
facet normal 0 1 0
outer loop
vertex 0 5.38 0
vertex 1.25 5.38 0.25
vertex 1.25 5.38 0
endloop
endfacet
facet normal 0 1 0
outer loop
vertex 1.25 5.38 0.25
vertex 0 5.38 0
vertex 0 5.38 0.25
endloop
endfacet
facet normal 1 0 0
outer loop
vertex 2.7 4.78 0.25
vertex 2.7 5.38 0
vertex 2.7 5.38 0.25
endloop
endfacet
facet normal 1 0 0
outer loop
vertex 2.7 5.38 0
vertex 2.7 4.78 0.25
vertex 2.7 4.78 0
endloop
endfacet
facet normal 0 -1 0
outer loop
vertex 1.25 4.78 0.25
vertex 2.7 4.78 0
vertex 2.7 4.78 0.25
endloop
endfacet
facet normal 0 -1 0
outer loop
vertex 1.25 4.78 0.25
vertex 1.25 4.78 0
vertex 2.7 4.78 0
endloop
endfacet
facet normal 0 -1 0
outer loop
vertex 0 4.78 0.25
vertex 1.25 4.78 0
vertex 1.25 4.78 0.25
endloop
endfacet
facet normal 0 -1 0
outer loop
vertex 1.25 4.78 0
vertex 0 4.78 0.25
vertex 0 4.78 0
endloop
endfacet
facet normal 0 0 1
outer loop
vertex 1.25 5.38 0.25
vertex 2.7 4.78 0.25
vertex 2.7 5.38 0.25
endloop
endfacet
facet normal 0 0 0.9999999999999999
outer loop
vertex 1.25 5.38 0.25
vertex 1.25 4.78 0.25
vertex 2.7 4.78 0.25
endloop
endfacet
facet normal 0 0 1
outer loop
vertex 0 5.38 0.25
vertex 1.25 4.78 0.25
vertex 1.25 5.38 0.25
endloop
endfacet
facet normal 0 0 1
outer loop
vertex 1.25 4.78 0.25
vertex 0 5.38 0.25
vertex 0 4.78 0.25
endloop
endfacet
facet normal 0 0 -0.9999999999999999
outer loop
vertex 1.25 4.78 0
vertex 2.7 5.38 0
vertex 2.7 4.78 0
endloop
endfacet
facet normal 0 0 -1
outer loop
vertex 1.25 4.78 0
vertex 1.25 5.38 0
vertex 2.7 5.38 0
endloop
endfacet
facet normal 0 0 -1
outer loop
vertex 1.25 4.78 0
vertex 0 5.38 0
vertex 1.25 5.38 0
endloop
endfacet
facet normal 0 0 -1
outer loop
vertex 0 5.38 0
vertex 1.25 4.78 0
vertex 0 4.78 0
endloop
endfacet
facet normal -1 0 0
outer loop
vertex 0 0.3 0
vertex 0 -0.3 0.25
vertex 0 0.3 0.25
endloop
endfacet
facet normal -1 0 0
outer loop
vertex 0 -0.3 0.25
vertex 0 0.3 0
vertex 0 -0.3 0
endloop
endfacet
facet normal 0 1 0
outer loop
vertex 1.25 0.3 0
vertex 2.7 0.3 0.25
vertex 2.7 0.3 0
endloop
endfacet
facet normal 0 1 0
outer loop
vertex 1.25 0.3 0
vertex 1.25 0.3 0.25
vertex 2.7 0.3 0.25
endloop
endfacet
facet normal 0 1 0
outer loop
vertex 0 0.3 0
vertex 1.25 0.3 0.25
vertex 1.25 0.3 0
endloop
endfacet
facet normal 0 1 0
outer loop
vertex 1.25 0.3 0.25
vertex 0 0.3 0
vertex 0 0.3 0.25
endloop
endfacet
facet normal 1 0 0
outer loop
vertex 2.7 -0.3 0.25
vertex 2.7 0.3 0
vertex 2.7 0.3 0.25
endloop
endfacet
facet normal 1 0 0
outer loop
vertex 2.7 0.3 0
vertex 2.7 -0.3 0.25
vertex 2.7 -0.3 0
endloop
endfacet
facet normal 0 -1 0
outer loop
vertex 1.25 -0.3 0.25
vertex 2.7 -0.3 0
vertex 2.7 -0.3 0.25
endloop
endfacet
facet normal 0 -1 0
outer loop
vertex 1.25 -0.3 0.25
vertex 1.25 -0.3 0
vertex 2.7 -0.3 0
endloop
endfacet
facet normal 0 -1 0
outer loop
vertex 0 -0.3 0.25
vertex 1.25 -0.3 0
vertex 1.25 -0.3 0.25
endloop
endfacet
facet normal 0 -1 0
outer loop
vertex 1.25 -0.3 0
vertex 0 -0.3 0.25
vertex 0 -0.3 0
endloop
endfacet
facet normal 0 0 1
outer loop
vertex 1.25 0.3 0.25
vertex 2.7 -0.3 0.25
vertex 2.7 0.3 0.25
endloop
endfacet
facet normal 0 0 1
outer loop
vertex 1.25 0.3 0.25
vertex 1.25 -0.3 0.25
vertex 2.7 -0.3 0.25
endloop
endfacet
facet normal 0 0 1
outer loop
vertex 0 0.3 0.25
vertex 1.25 -0.3 0.25
vertex 1.25 0.3 0.25
endloop
endfacet
facet normal 0 0 1
outer loop
vertex 1.25 -0.3 0.25
vertex 0 0.3 0.25
vertex 0 -0.3 0.25
endloop
endfacet
facet normal 0 0 -1
outer loop
vertex 1.25 -0.3 0
vertex 2.7 0.3 0
vertex 2.7 -0.3 0
endloop
endfacet
facet normal 0 0 -1
outer loop
vertex 1.25 -0.3 0
vertex 1.25 0.3 0
vertex 2.7 0.3 0
endloop
endfacet
facet normal 0 0 -1
outer loop
vertex 1.25 -0.3 0
vertex 0 0.3 0
vertex 1.25 0.3 0
endloop
endfacet
facet normal 0 0 -1
outer loop
vertex 0 0.3 0
vertex 1.25 -0.3 0
vertex 0 -0.3 0
endloop
endfacet
endsolid JSxCAD
