solid JSxCAD
facet normal -1 0 0
outer loop
vertex -1.25 24.32 0
vertex -1.25 -24.32 7.5
vertex -1.25 24.32 7.5
endloop
endfacet
facet normal -1 0 0
outer loop
vertex -1.25 -24.32 7.5
vertex -1.25 24.32 0
vertex -1.25 -24.32 0
endloop
endfacet
facet normal 0 1 0
outer loop
vertex -1.25 24.32 0
vertex 1.25 24.32 7.5
vertex 1.25 24.32 0
endloop
endfacet
facet normal 0 1 0
outer loop
vertex 1.25 24.32 7.5
vertex -1.25 24.32 0
vertex -1.25 24.32 7.5
endloop
endfacet
facet normal 1 0 0
outer loop
vertex 1.25 -24.32 0
vertex 1.25 24.32 7.5
vertex 1.25 -24.32 7.5
endloop
endfacet
facet normal 1 0 0
outer loop
vertex 1.25 24.32 7.5
vertex 1.25 -24.32 0
vertex 1.25 24.32 0
endloop
endfacet
facet normal 0 -1 0
outer loop
vertex -1.25 -24.32 7.5
vertex 1.25 -24.32 0
vertex 1.25 -24.32 7.5
endloop
endfacet
facet normal 0 -1 0
outer loop
vertex 1.25 -24.32 0
vertex -1.25 -24.32 7.5
vertex -1.25 -24.32 0
endloop
endfacet
facet normal 0 0 0.9999999999999999
outer loop
vertex -1.25 24.32 7.5
vertex 1.25 -24.32 7.5
vertex 1.25 24.32 7.5
endloop
endfacet
facet normal 0 0 0.9999999999999999
outer loop
vertex 1.25 -24.32 7.5
vertex -1.25 24.32 7.5
vertex -1.25 -24.32 7.5
endloop
endfacet
facet normal 0 0 -0.9999999999999999
outer loop
vertex 1.25 -24.32 0
vertex -1.25 24.32 0
vertex 1.25 24.32 0
endloop
endfacet
facet normal 0 0 -0.9999999999999999
outer loop
vertex -1.25 24.32 0
vertex 1.25 -24.32 0
vertex -1.25 -24.32 0
endloop
endfacet
endsolid JSxCAD
