solid JSxCAD
facet normal 0 -1 0
outer loop
vertex -1.25 7.92 0.25
vertex 0 7.92 0
vertex 0 7.92 0.25
endloop
endfacet
facet normal 0 -1 0
outer loop
vertex 0 7.92 0
vertex -1.25 7.92 0.25
vertex -1.25 7.92 0
endloop
endfacet
facet normal 0 1 0
outer loop
vertex -1.25 7.32 0
vertex 0 7.32 0.25
vertex 0 7.32 0
endloop
endfacet
facet normal 0 1 0
outer loop
vertex 0 7.32 0.25
vertex -1.25 7.32 0
vertex -1.25 7.32 0.25
endloop
endfacet
facet normal 0 0 -1
outer loop
vertex -1.25 17.48 0.25
vertex 0 18.08 0.25
vertex 0 17.48 0.25
endloop
endfacet
facet normal 0 0 -1
outer loop
vertex 0 18.08 0.25
vertex -1.25 17.48 0.25
vertex -1.25 18.08 0.25
endloop
endfacet
facet normal 0 0 -1
outer loop
vertex 1.25 14.94 0.25
vertex 0 15.54 0.25
vertex 1.25 15.54 0.25
endloop
endfacet
facet normal 0 0 -1
outer loop
vertex 0 15.54 0.25
vertex 1.25 14.94 0.25
vertex 0 14.94 0.25
endloop
endfacet
facet normal 0 0 -1
outer loop
vertex -1.25 12.4 0.25
vertex 0 13 0.25
vertex 0 12.4 0.25
endloop
endfacet
facet normal 0 0 -1
outer loop
vertex 0 13 0.25
vertex -1.25 12.4 0.25
vertex -1.25 13 0.25
endloop
endfacet
facet normal 0 0 -1
outer loop
vertex 1.25 9.86 0.25
vertex 0 10.46 0.25
vertex 1.25 10.46 0.25
endloop
endfacet
facet normal 0 0 -1
outer loop
vertex 0 10.46 0.25
vertex 1.25 9.86 0.25
vertex 0 9.86 0.25
endloop
endfacet
facet normal 0 0 -1
outer loop
vertex -1.25 7.32 0.25
vertex 0 7.92 0.25
vertex 0 7.32 0.25
endloop
endfacet
facet normal 0 0 -1
outer loop
vertex 0 7.92 0.25
vertex -1.25 7.32 0.25
vertex -1.25 7.92 0.25
endloop
endfacet
facet normal 0 0 -1
outer loop
vertex 1.25 4.78 0.25
vertex 0 5.38 0.25
vertex 1.25 5.38 0.25
endloop
endfacet
facet normal 0 0 -1
outer loop
vertex 0 5.38 0.25
vertex 1.25 4.78 0.25
vertex 0 4.78 0.25
endloop
endfacet
facet normal 0 0 -0.9999999999999999
outer loop
vertex -1.25 2.24 0.25
vertex 0 2.84 0.25
vertex 0 2.24 0.25
endloop
endfacet
facet normal 0 0 -1
outer loop
vertex 0 2.84 0.25
vertex -1.25 2.24 0.25
vertex -1.25 2.84 0.25
endloop
endfacet
facet normal 0 0 -1
outer loop
vertex 1.25 -0.3 0.25
vertex 0 0.3 0.25
vertex 1.25 0.3 0.25
endloop
endfacet
facet normal 0 0 -1
outer loop
vertex 0 0.3 0.25
vertex 1.25 -0.3 0.25
vertex 0 -0.3 0.25
endloop
endfacet
facet normal 0 0 -1
outer loop
vertex -1.25 -2.84 0.25
vertex 0 -2.24 0.25
vertex 0 -2.84 0.25
endloop
endfacet
facet normal 0 0 -0.9999999999999999
outer loop
vertex 0 -2.24 0.25
vertex -1.25 -2.84 0.25
vertex -1.25 -2.24 0.25
endloop
endfacet
facet normal 0 0 -1
outer loop
vertex 1.25 -5.38 0.25
vertex 0 -4.78 0.25
vertex 1.25 -4.78 0.25
endloop
endfacet
facet normal 0 0 -1
outer loop
vertex 0 -4.78 0.25
vertex 1.25 -5.38 0.25
vertex 0 -5.38 0.25
endloop
endfacet
facet normal 0 0 -1
outer loop
vertex -1.25 -7.92 0.25
vertex 0 -7.32 0.25
vertex 0 -7.92 0.25
endloop
endfacet
facet normal 0 0 -1
outer loop
vertex 0 -7.32 0.25
vertex -1.25 -7.92 0.25
vertex -1.25 -7.32 0.25
endloop
endfacet
facet normal 0 0 -1
outer loop
vertex 1.25 -10.46 0.25
vertex 0 -9.86 0.25
vertex 1.25 -9.86 0.25
endloop
endfacet
facet normal 0 0 -1
outer loop
vertex 0 -9.86 0.25
vertex 1.25 -10.46 0.25
vertex 0 -10.46 0.25
endloop
endfacet
facet normal 0 0 -1
outer loop
vertex -1.25 -13 0.25
vertex 0 -12.4 0.25
vertex 0 -13 0.25
endloop
endfacet
facet normal 0 0 -1
outer loop
vertex 0 -12.4 0.25
vertex -1.25 -13 0.25
vertex -1.25 -12.4 0.25
endloop
endfacet
facet normal 0 0 -1
outer loop
vertex 1.25 -15.54 0.25
vertex 0 -14.94 0.25
vertex 1.25 -14.94 0.25
endloop
endfacet
facet normal 0 0 -1
outer loop
vertex 0 -14.94 0.25
vertex 1.25 -15.54 0.25
vertex 0 -15.54 0.25
endloop
endfacet
facet normal 0 0 -1
outer loop
vertex 0 -18.08 0.25
vertex -1.25 -17.48 0.25
vertex 0 -17.48 0.25
endloop
endfacet
facet normal 0 0 -1
outer loop
vertex -1.25 -17.48 0.25
vertex 0 -18.08 0.25
vertex -1.25 -18.08 0.25
endloop
endfacet
facet normal -1 0 0
outer loop
vertex 0 -18.08 0
vertex 0 -17.48 0.25
vertex 0 -17.48 0
endloop
endfacet
facet normal -1 0 0
outer loop
vertex 0 -17.48 0.25
vertex 0 -18.08 0
vertex 0 -18.08 0.25
endloop
endfacet
facet normal -1 0 0
outer loop
vertex 0 -13 0
vertex 0 -12.4 0.25
vertex 0 -12.4 0
endloop
endfacet
facet normal -1 0 0
outer loop
vertex 0 -12.4 0.25
vertex 0 -13 0
vertex 0 -13 0.25
endloop
endfacet
facet normal -1 0 0
outer loop
vertex 0 -7.92 0
vertex 0 -7.32 0.25
vertex 0 -7.32 0
endloop
endfacet
facet normal -1 0 0
outer loop
vertex 0 -7.32 0.25
vertex 0 -7.92 0
vertex 0 -7.92 0.25
endloop
endfacet
facet normal -1 0 0
outer loop
vertex 0 -2.84 0
vertex 0 -2.24 0.25
vertex 0 -2.24 0
endloop
endfacet
facet normal -1 0 0
outer loop
vertex 0 -2.24 0.25
vertex 0 -2.84 0
vertex 0 -2.84 0.25
endloop
endfacet
facet normal -1 0 0
outer loop
vertex 0 2.24 0
vertex 0 2.84 0.25
vertex 0 2.84 0
endloop
endfacet
facet normal -1 0 0
outer loop
vertex 0 2.84 0.25
vertex 0 2.24 0
vertex 0 2.24 0.25
endloop
endfacet
facet normal -1 0 0
outer loop
vertex 0 7.32 0
vertex 0 7.92 0.25
vertex 0 7.92 0
endloop
endfacet
facet normal -1 0 0
outer loop
vertex 0 7.92 0.25
vertex 0 7.32 0
vertex 0 7.32 0.25
endloop
endfacet
facet normal -1 0 0
outer loop
vertex 0 12.4 0
vertex 0 13 0.25
vertex 0 13 0
endloop
endfacet
facet normal -1 0 0
outer loop
vertex 0 13 0.25
vertex 0 12.4 0
vertex 0 12.4 0.25
endloop
endfacet
facet normal -1 0 0
outer loop
vertex 0 17.48 0
vertex 0 18.08 0.25
vertex 0 18.08 0
endloop
endfacet
facet normal -1 0 0
outer loop
vertex 0 18.08 0.25
vertex 0 17.48 0
vertex 0 17.48 0.25
endloop
endfacet
facet normal 0 -1 0
outer loop
vertex -1.25 2.84 0.25
vertex 0 2.84 0
vertex 0 2.84 0.25
endloop
endfacet
facet normal 0 -1 0
outer loop
vertex 0 2.84 0
vertex -1.25 2.84 0.25
vertex -1.25 2.84 0
endloop
endfacet
facet normal 0 1 0
outer loop
vertex -1.25 2.24 0
vertex 0 2.24 0.25
vertex 0 2.24 0
endloop
endfacet
facet normal 0 1 0
outer loop
vertex 0 2.24 0.25
vertex -1.25 2.24 0
vertex -1.25 2.24 0.25
endloop
endfacet
facet normal 1 0 0
outer loop
vertex 0 14.94 0.25
vertex 0 15.54 0
vertex 0 15.54 0.25
endloop
endfacet
facet normal 1 0 0
outer loop
vertex 0 15.54 0
vertex 0 14.94 0.25
vertex 0 14.94 0
endloop
endfacet
facet normal 1 0 0
outer loop
vertex 0 9.86 0.25
vertex 0 10.46 0
vertex 0 10.46 0.25
endloop
endfacet
facet normal 1 0 0
outer loop
vertex 0 10.46 0
vertex 0 9.86 0.25
vertex 0 9.86 0
endloop
endfacet
facet normal 1 0 0
outer loop
vertex 0 4.78 0.25
vertex 0 5.38 0
vertex 0 5.38 0.25
endloop
endfacet
facet normal 1 0 0
outer loop
vertex 0 5.38 0
vertex 0 4.78 0.25
vertex 0 4.78 0
endloop
endfacet
facet normal 1 0 0
outer loop
vertex 0 -0.3 0.25
vertex 0 0.3 0
vertex 0 0.3 0.25
endloop
endfacet
facet normal 1 0 0
outer loop
vertex 0 0.3 0
vertex 0 -0.3 0.25
vertex 0 -0.3 0
endloop
endfacet
facet normal 1 0 0
outer loop
vertex 0 -5.38 0.25
vertex 0 -4.78 0
vertex 0 -4.78 0.25
endloop
endfacet
facet normal 1 0 0
outer loop
vertex 0 -4.78 0
vertex 0 -5.38 0.25
vertex 0 -5.38 0
endloop
endfacet
facet normal 1 0 0
outer loop
vertex 0 -10.46 0.25
vertex 0 -9.86 0
vertex 0 -9.86 0.25
endloop
endfacet
facet normal 1 0 0
outer loop
vertex 0 -9.86 0
vertex 0 -10.46 0.25
vertex 0 -10.46 0
endloop
endfacet
facet normal 1 0 0
outer loop
vertex 0 -15.54 0.25
vertex 0 -14.94 0
vertex 0 -14.94 0.25
endloop
endfacet
facet normal 1 0 0
outer loop
vertex 0 -14.94 0
vertex 0 -15.54 0.25
vertex 0 -15.54 0
endloop
endfacet
facet normal 0 -1 0
outer loop
vertex 0 5.38 0.25
vertex 1.25 5.38 0
vertex 1.25 5.38 0.25
endloop
endfacet
facet normal 0 -1 0
outer loop
vertex 1.25 5.38 0
vertex 0 5.38 0.25
vertex 0 5.38 0
endloop
endfacet
facet normal 0 1 0
outer loop
vertex 0 4.78 0
vertex 1.25 4.78 0.25
vertex 1.25 4.78 0
endloop
endfacet
facet normal 0 1 0
outer loop
vertex 1.25 4.78 0.25
vertex 0 4.78 0
vertex 0 4.78 0.25
endloop
endfacet
facet normal 0 -1 0
outer loop
vertex 0 0.3 0.25
vertex 1.25 0.3 0
vertex 1.25 0.3 0.25
endloop
endfacet
facet normal 0 -1 0
outer loop
vertex 1.25 0.3 0
vertex 0 0.3 0.25
vertex 0 0.3 0
endloop
endfacet
facet normal 0 1 0
outer loop
vertex 1.25 -0.3 0
vertex 0 -0.3 0.25
vertex 1.25 -0.3 0.25
endloop
endfacet
facet normal 0 1 0
outer loop
vertex 0 -0.3 0.25
vertex 1.25 -0.3 0
vertex 0 -0.3 0
endloop
endfacet
facet normal 0 -1 0
outer loop
vertex -1.25 18.08 0.25
vertex 0 18.08 0
vertex 0 18.08 0.25
endloop
endfacet
facet normal 0 -1 0
outer loop
vertex 0 18.08 0
vertex -1.25 18.08 0.25
vertex -1.25 18.08 0
endloop
endfacet
facet normal 0 1 0
outer loop
vertex -1.25 17.48 0
vertex 0 17.48 0.25
vertex 0 17.48 0
endloop
endfacet
facet normal 0 1 0
outer loop
vertex 0 17.48 0.25
vertex -1.25 17.48 0
vertex -1.25 17.48 0.25
endloop
endfacet
facet normal 0 -1 0
outer loop
vertex -1.25 13 0.25
vertex 0 13 0
vertex 0 13 0.25
endloop
endfacet
facet normal 0 -1 0
outer loop
vertex 0 13 0
vertex -1.25 13 0.25
vertex -1.25 13 0
endloop
endfacet
facet normal 0 1 0
outer loop
vertex -1.25 12.4 0
vertex 0 12.4 0.25
vertex 0 12.4 0
endloop
endfacet
facet normal 0 1 0
outer loop
vertex 0 12.4 0.25
vertex -1.25 12.4 0
vertex -1.25 12.4 0.25
endloop
endfacet
facet normal 0 -1 0
outer loop
vertex 1.25 15.54 0.25
vertex 0 15.54 0
vertex 1.25 15.54 0
endloop
endfacet
facet normal 0 -1 0
outer loop
vertex 0 15.54 0
vertex 1.25 15.54 0.25
vertex 0 15.54 0.25
endloop
endfacet
facet normal 0 1 0
outer loop
vertex 0 14.94 0
vertex 1.25 14.94 0.25
vertex 1.25 14.94 0
endloop
endfacet
facet normal 0 1 0
outer loop
vertex 1.25 14.94 0.25
vertex 0 14.94 0
vertex 0 14.94 0.25
endloop
endfacet
facet normal 0 -1 0
outer loop
vertex 1.25 10.46 0.25
vertex 0 10.46 0
vertex 1.25 10.46 0
endloop
endfacet
facet normal 0 -1 0
outer loop
vertex 0 10.46 0
vertex 1.25 10.46 0.25
vertex 0 10.46 0.25
endloop
endfacet
facet normal 0 1 0
outer loop
vertex 0 9.86 0
vertex 1.25 9.86 0.25
vertex 1.25 9.86 0
endloop
endfacet
facet normal 0 1 0
outer loop
vertex 1.25 9.86 0.25
vertex 0 9.86 0
vertex 0 9.86 0.25
endloop
endfacet
facet normal 0 -1 0
outer loop
vertex -1.25 -2.24 0.25
vertex 0 -2.24 0
vertex 0 -2.24 0.25
endloop
endfacet
facet normal 0 -1 0
outer loop
vertex 0 -2.24 0
vertex -1.25 -2.24 0.25
vertex -1.25 -2.24 0
endloop
endfacet
facet normal 0 1 0
outer loop
vertex -1.25 -2.84 0
vertex 0 -2.84 0.25
vertex 0 -2.84 0
endloop
endfacet
facet normal 0 1 0
outer loop
vertex 0 -2.84 0.25
vertex -1.25 -2.84 0
vertex -1.25 -2.84 0.25
endloop
endfacet
facet normal 0 -1 0
outer loop
vertex -1.25 -7.32 0.25
vertex 0 -7.32 0
vertex 0 -7.32 0.25
endloop
endfacet
facet normal 0 -1 0
outer loop
vertex 0 -7.32 0
vertex -1.25 -7.32 0.25
vertex -1.25 -7.32 0
endloop
endfacet
facet normal 0 1 0
outer loop
vertex -1.25 -7.92 0
vertex 0 -7.92 0.25
vertex 0 -7.92 0
endloop
endfacet
facet normal 0 1 0
outer loop
vertex 0 -7.92 0.25
vertex -1.25 -7.92 0
vertex -1.25 -7.92 0.25
endloop
endfacet
facet normal 0 -1 0
outer loop
vertex 0 -4.78 0.25
vertex 1.25 -4.78 0
vertex 1.25 -4.78 0.25
endloop
endfacet
facet normal 0 -1 0
outer loop
vertex 1.25 -4.78 0
vertex 0 -4.78 0.25
vertex 0 -4.78 0
endloop
endfacet
facet normal 0 1 0
outer loop
vertex 1.25 -5.38 0
vertex 0 -5.38 0.25
vertex 1.25 -5.38 0.25
endloop
endfacet
facet normal 0 1 0
outer loop
vertex 0 -5.38 0.25
vertex 1.25 -5.38 0
vertex 0 -5.38 0
endloop
endfacet
facet normal 0 -1 0
outer loop
vertex 0 -9.86 0.25
vertex 1.25 -9.86 0
vertex 1.25 -9.86 0.25
endloop
endfacet
facet normal 0 -1 0
outer loop
vertex 1.25 -9.86 0
vertex 0 -9.86 0.25
vertex 0 -9.86 0
endloop
endfacet
facet normal 0 1 0
outer loop
vertex 1.25 -10.46 0
vertex 0 -10.46 0.25
vertex 1.25 -10.46 0.25
endloop
endfacet
facet normal 0 1 0
outer loop
vertex 0 -10.46 0.25
vertex 1.25 -10.46 0
vertex 0 -10.46 0
endloop
endfacet
facet normal 0 -1 0
outer loop
vertex -1.25 -12.4 0.25
vertex 0 -12.4 0
vertex 0 -12.4 0.25
endloop
endfacet
facet normal 0 -1 0
outer loop
vertex 0 -12.4 0
vertex -1.25 -12.4 0.25
vertex -1.25 -12.4 0
endloop
endfacet
facet normal 0 1 0
outer loop
vertex -1.25 -13 0
vertex 0 -13 0.25
vertex 0 -13 0
endloop
endfacet
facet normal 0 1 0
outer loop
vertex 0 -13 0.25
vertex -1.25 -13 0
vertex -1.25 -13 0.25
endloop
endfacet
facet normal 0 -1 0
outer loop
vertex -1.25 -17.48 0.25
vertex 0 -17.48 0
vertex 0 -17.48 0.25
endloop
endfacet
facet normal 0 -1 0
outer loop
vertex 0 -17.48 0
vertex -1.25 -17.48 0.25
vertex -1.25 -17.48 0
endloop
endfacet
facet normal 0 1 0
outer loop
vertex -1.25 -18.08 0
vertex 0 -18.08 0.25
vertex 0 -18.08 0
endloop
endfacet
facet normal 0 1 0
outer loop
vertex 0 -18.08 0.25
vertex -1.25 -18.08 0
vertex -1.25 -18.08 0.25
endloop
endfacet
facet normal 0 -1 0
outer loop
vertex 0 -14.94 0.25
vertex 1.25 -14.94 0
vertex 1.25 -14.94 0.25
endloop
endfacet
facet normal 0 -1 0
outer loop
vertex 1.25 -14.94 0
vertex 0 -14.94 0.25
vertex 0 -14.94 0
endloop
endfacet
facet normal 0 1 0
outer loop
vertex 1.25 -15.54 0
vertex 0 -15.54 0.25
vertex 1.25 -15.54 0.25
endloop
endfacet
facet normal 0 1 0
outer loop
vertex 0 -15.54 0.25
vertex 1.25 -15.54 0
vertex 0 -15.54 0
endloop
endfacet
facet normal -1 0 0
outer loop
vertex -1.25 19.235 7.5
vertex -1.25 18.08 0.25
vertex -1.25 18.08 7.5
endloop
endfacet
facet normal -1 0 0
outer loop
vertex -1.25 19.235 0
vertex -1.25 18.08 0.25
vertex -1.25 19.235 7.5
endloop
endfacet
facet normal -1 0 0
outer loop
vertex -1.25 18.08 0.25
vertex -1.25 19.235 0
vertex -1.25 18.08 0
endloop
endfacet
facet normal -1 0 0
outer loop
vertex -1.25 17.48 0.25
vertex -1.25 13 7.5
vertex -1.25 17.48 7.5
endloop
endfacet
facet normal -1 0 0
outer loop
vertex -1.25 17.48 0.25
vertex -1.25 13 0.25
vertex -1.25 13 7.5
endloop
endfacet
facet normal -1 0 0
outer loop
vertex -1.25 17.48 0
vertex -1.25 13 0.25
vertex -1.25 17.48 0.25
endloop
endfacet
facet normal -0.9999999999999999 0 0
outer loop
vertex -1.25 15.54 0
vertex -1.25 13 0.25
vertex -1.25 17.48 0
endloop
endfacet
facet normal -1 0 0
outer loop
vertex -1.25 14.94 0
vertex -1.25 13 0.25
vertex -1.25 15.54 0
endloop
endfacet
facet normal -1 0 0
outer loop
vertex -1.25 13 0.25
vertex -1.25 14.94 0
vertex -1.25 13 0
endloop
endfacet
facet normal -1 0 0
outer loop
vertex -1.25 18.08 0.25
vertex -1.25 17.48 7.5
vertex -1.25 18.08 7.5
endloop
endfacet
facet normal -1 0 0
outer loop
vertex -1.25 17.48 7.5
vertex -1.25 18.08 0.25
vertex -1.25 17.48 0.25
endloop
endfacet
facet normal -1 0 0
outer loop
vertex -1.25 12.4 0.25
vertex -1.25 7.92 7.5
vertex -1.25 12.4 7.5
endloop
endfacet
facet normal -1 0 0
outer loop
vertex -1.25 12.4 0.25
vertex -1.25 7.92 0.25
vertex -1.25 7.92 7.5
endloop
endfacet
facet normal -1 0 0
outer loop
vertex -1.25 12.4 0
vertex -1.25 7.92 0.25
vertex -1.25 12.4 0.25
endloop
endfacet
facet normal -1 0 0
outer loop
vertex -1.25 10.46 0
vertex -1.25 7.92 0.25
vertex -1.25 12.4 0
endloop
endfacet
facet normal -1 0 0
outer loop
vertex -1.25 9.86 0
vertex -1.25 7.92 0.25
vertex -1.25 10.46 0
endloop
endfacet
facet normal -1 0 0
outer loop
vertex -1.25 7.92 0.25
vertex -1.25 9.86 0
vertex -1.25 7.92 0
endloop
endfacet
facet normal -1 0 0
outer loop
vertex -1.25 13 0.25
vertex -1.25 12.4 7.5
vertex -1.25 13 7.5
endloop
endfacet
facet normal -1 0 0
outer loop
vertex -1.25 12.4 7.5
vertex -1.25 13 0.25
vertex -1.25 12.4 0.25
endloop
endfacet
facet normal -1 0 0
outer loop
vertex -1.25 7.32 0.25
vertex -1.25 2.84 7.5
vertex -1.25 7.32 7.5
endloop
endfacet
facet normal -1 0 0
outer loop
vertex -1.25 7.32 0.25
vertex -1.25 2.84 0.25
vertex -1.25 2.84 7.5
endloop
endfacet
facet normal -1 0 0
outer loop
vertex -1.25 7.32 0
vertex -1.25 2.84 0.25
vertex -1.25 7.32 0.25
endloop
endfacet
facet normal -1 0 0
outer loop
vertex -1.25 5.38 0
vertex -1.25 2.84 0.25
vertex -1.25 7.32 0
endloop
endfacet
facet normal -1 0 0
outer loop
vertex -1.25 4.78 0
vertex -1.25 2.84 0.25
vertex -1.25 5.38 0
endloop
endfacet
facet normal -1 0 0
outer loop
vertex -1.25 2.84 0.25
vertex -1.25 4.78 0
vertex -1.25 2.84 0
endloop
endfacet
facet normal -1 0 0
outer loop
vertex -1.25 7.92 0.25
vertex -1.25 7.32 7.5
vertex -1.25 7.92 7.5
endloop
endfacet
facet normal -1 0 0
outer loop
vertex -1.25 7.32 7.5
vertex -1.25 7.92 0.25
vertex -1.25 7.32 0.25
endloop
endfacet
facet normal -1 0 0
outer loop
vertex -1.25 2.24 0.25
vertex -1.25 -2.24 7.5
vertex -1.25 2.24 7.5
endloop
endfacet
facet normal -1 0 0
outer loop
vertex -1.25 2.24 0.25
vertex -1.25 -2.24 0.25
vertex -1.25 -2.24 7.5
endloop
endfacet
facet normal -1 0 0
outer loop
vertex -1.25 2.24 0
vertex -1.25 -2.24 0.25
vertex -1.25 2.24 0.25
endloop
endfacet
facet normal -1 0 0
outer loop
vertex -1.25 0.3 0
vertex -1.25 -2.24 0.25
vertex -1.25 2.24 0
endloop
endfacet
facet normal -1 0 0
outer loop
vertex -1.25 -0.3 0
vertex -1.25 -2.24 0.25
vertex -1.25 0.3 0
endloop
endfacet
facet normal -1 0 0
outer loop
vertex -1.25 -2.24 0.25
vertex -1.25 -0.3 0
vertex -1.25 -2.24 0
endloop
endfacet
facet normal -1 0 0
outer loop
vertex -1.25 2.84 0.25
vertex -1.25 2.24 7.5
vertex -1.25 2.84 7.5
endloop
endfacet
facet normal -1 0 0
outer loop
vertex -1.25 2.24 7.5
vertex -1.25 2.84 0.25
vertex -1.25 2.24 0.25
endloop
endfacet
facet normal -1 0 0
outer loop
vertex -1.25 -2.84 0.25
vertex -1.25 -7.32 7.5
vertex -1.25 -2.84 7.5
endloop
endfacet
facet normal -1 0 0
outer loop
vertex -1.25 -2.84 0.25
vertex -1.25 -7.32 0.25
vertex -1.25 -7.32 7.5
endloop
endfacet
facet normal -1 0 0
outer loop
vertex -1.25 -2.84 0
vertex -1.25 -7.32 0.25
vertex -1.25 -2.84 0.25
endloop
endfacet
facet normal -1 0 0
outer loop
vertex -1.25 -4.78 0
vertex -1.25 -7.32 0.25
vertex -1.25 -2.84 0
endloop
endfacet
facet normal -1 0 0
outer loop
vertex -1.25 -5.38 0
vertex -1.25 -7.32 0.25
vertex -1.25 -4.78 0
endloop
endfacet
facet normal -1 0 0
outer loop
vertex -1.25 -7.32 0.25
vertex -1.25 -5.38 0
vertex -1.25 -7.32 0
endloop
endfacet
facet normal -1 0 0
outer loop
vertex -1.25 -2.24 0.25
vertex -1.25 -2.84 7.5
vertex -1.25 -2.24 7.5
endloop
endfacet
facet normal -1 0 0
outer loop
vertex -1.25 -2.84 7.5
vertex -1.25 -2.24 0.25
vertex -1.25 -2.84 0.25
endloop
endfacet
facet normal -1 0 0
outer loop
vertex -1.25 -7.92 0.25
vertex -1.25 -12.4 7.5
vertex -1.25 -7.92 7.5
endloop
endfacet
facet normal -1 0 0
outer loop
vertex -1.25 -7.92 0.25
vertex -1.25 -12.4 0.25
vertex -1.25 -12.4 7.5
endloop
endfacet
facet normal -1 0 0
outer loop
vertex -1.25 -7.92 0
vertex -1.25 -12.4 0.25
vertex -1.25 -7.92 0.25
endloop
endfacet
facet normal -1 0 0
outer loop
vertex -1.25 -9.86 0
vertex -1.25 -12.4 0.25
vertex -1.25 -7.92 0
endloop
endfacet
facet normal -1 0 0
outer loop
vertex -1.25 -10.46 0
vertex -1.25 -12.4 0.25
vertex -1.25 -9.86 0
endloop
endfacet
facet normal -1 0 0
outer loop
vertex -1.25 -12.4 0.25
vertex -1.25 -10.46 0
vertex -1.25 -12.4 0
endloop
endfacet
facet normal -1 0 0
outer loop
vertex -1.25 -7.32 0.25
vertex -1.25 -7.92 7.5
vertex -1.25 -7.32 7.5
endloop
endfacet
facet normal -1 0 0
outer loop
vertex -1.25 -7.92 7.5
vertex -1.25 -7.32 0.25
vertex -1.25 -7.92 0.25
endloop
endfacet
facet normal -1 0 0
outer loop
vertex -1.25 -13 0.25
vertex -1.25 -17.48 7.5
vertex -1.25 -13 7.5
endloop
endfacet
facet normal -1 0 0
outer loop
vertex -1.25 -13 0.25
vertex -1.25 -17.48 0.25
vertex -1.25 -17.48 7.5
endloop
endfacet
facet normal -1 0 0
outer loop
vertex -1.25 -13 0
vertex -1.25 -17.48 0.25
vertex -1.25 -13 0.25
endloop
endfacet
facet normal -1 0 0
outer loop
vertex -1.25 -14.94 0
vertex -1.25 -17.48 0.25
vertex -1.25 -13 0
endloop
endfacet
facet normal -1 0 0
outer loop
vertex -1.25 -15.54 0
vertex -1.25 -17.48 0.25
vertex -1.25 -14.94 0
endloop
endfacet
facet normal -0.9999999999999999 0 0
outer loop
vertex -1.25 -17.48 0.25
vertex -1.25 -15.54 0
vertex -1.25 -17.48 0
endloop
endfacet
facet normal -1 0 0
outer loop
vertex -1.25 -12.4 0.25
vertex -1.25 -13 7.5
vertex -1.25 -12.4 7.5
endloop
endfacet
facet normal -1 0 0
outer loop
vertex -1.25 -13 7.5
vertex -1.25 -12.4 0.25
vertex -1.25 -13 0.25
endloop
endfacet
facet normal -1 0 0
outer loop
vertex -1.25 -18.08 0.25
vertex -1.25 -19.235 7.5
vertex -1.25 -18.08 7.5
endloop
endfacet
facet normal -1 0 0
outer loop
vertex -1.25 -18.08 0
vertex -1.25 -19.235 7.5
vertex -1.25 -18.08 0.25
endloop
endfacet
facet normal -1 0 0
outer loop
vertex -1.25 -19.235 7.5
vertex -1.25 -18.08 0
vertex -1.25 -19.235 0
endloop
endfacet
facet normal -1 0 0
outer loop
vertex -1.25 -17.48 0.25
vertex -1.25 -18.08 7.5
vertex -1.25 -17.48 7.5
endloop
endfacet
facet normal -1 0 0
outer loop
vertex -1.25 -18.08 7.5
vertex -1.25 -17.48 0.25
vertex -1.25 -18.08 0.25
endloop
endfacet
facet normal 0 1 0
outer loop
vertex 1.25 19.235 0
vertex -1.25 19.235 7.5
vertex 1.25 19.235 7.5
endloop
endfacet
facet normal 0 1 0
outer loop
vertex -1.25 19.235 7.5
vertex 1.25 19.235 0
vertex -1.25 19.235 0
endloop
endfacet
facet normal 0 0 1
outer loop
vertex -1.25 18.08 7.5
vertex 1.25 19.235 7.5
vertex -1.25 19.235 7.5
endloop
endfacet
facet normal 0 0 1
outer loop
vertex -1.25 17.48 7.5
vertex 1.25 19.235 7.5
vertex -1.25 18.08 7.5
endloop
endfacet
facet normal 0 0 0.9999999999999999
outer loop
vertex -1.25 17.48 7.5
vertex 1.25 14.94 7.5
vertex 1.25 19.235 7.5
endloop
endfacet
facet normal -6.344131569286599e-16 0 1
outer loop
vertex -1.25 13 7.5
vertex 1.25 14.94 7.5
vertex -1.25 17.48 7.5
endloop
endfacet
facet normal 1.268826313857323e-15 0 0.9999999999999999
outer loop
vertex -1.25 13 7.5
vertex 1.25 10.46 7.5
vertex 1.25 14.94 7.5
endloop
endfacet
facet normal 0 0 1
outer loop
vertex -1.25 13 7.5
vertex 1.25 9.86 7.5
vertex 1.25 10.46 7.5
endloop
endfacet
facet normal 0 0 1
outer loop
vertex -1.25 7.92 7.5
vertex 1.25 9.86 7.5
vertex -1.25 13 7.5
endloop
endfacet
facet normal 0 0 1
outer loop
vertex -1.25 7.32 7.5
vertex 1.25 9.86 7.5
vertex -1.25 7.92 7.5
endloop
endfacet
facet normal 0 0 1
outer loop
vertex -1.25 7.32 7.5
vertex 1.25 5.38 7.5
vertex 1.25 9.86 7.5
endloop
endfacet
facet normal 1.1842378929335032e-15 0 1
outer loop
vertex -1.25 7.32 7.5
vertex 1.25 4.78 7.5
vertex 1.25 5.38 7.5
endloop
endfacet
facet normal -6.344131569286607e-16 0 1
outer loop
vertex -1.25 2.84 7.5
vertex 1.25 4.78 7.5
vertex -1.25 7.32 7.5
endloop
endfacet
facet normal -2.3684757858670005e-15 0 1
outer loop
vertex -1.25 2.24 7.5
vertex 1.25 4.78 7.5
vertex -1.25 2.84 7.5
endloop
endfacet
facet normal 0 0 1
outer loop
vertex -1.25 2.24 7.5
vertex 1.25 0.3 7.5
vertex 1.25 4.78 7.5
endloop
endfacet
facet normal 0 0 1
outer loop
vertex -1.25 2.24 7.5
vertex 1.25 -0.3 7.5
vertex 1.25 0.3 7.5
endloop
endfacet
facet normal 0 0 0.9999999999999999
outer loop
vertex -1.25 -2.84 7.5
vertex 1.25 -0.3 7.5
vertex -1.25 2.24 7.5
endloop
endfacet
facet normal 0 0 1
outer loop
vertex -1.25 -2.84 7.5
vertex 1.25 -4.78 7.5
vertex 1.25 -0.3 7.5
endloop
endfacet
facet normal 1.1842378929335032e-15 0 1
outer loop
vertex -1.25 -2.84 7.5
vertex 1.25 -5.38 7.5
vertex 1.25 -4.78 7.5
endloop
endfacet
facet normal -6.344131569286607e-16 0 1
outer loop
vertex -1.25 -7.32 7.5
vertex 1.25 -5.38 7.5
vertex -1.25 -2.84 7.5
endloop
endfacet
facet normal 0 0 1
outer loop
vertex -1.25 -7.32 7.5
vertex 1.25 -9.86 7.5
vertex 1.25 -5.38 7.5
endloop
endfacet
facet normal 0 0 1
outer loop
vertex -1.25 -7.32 7.5
vertex 1.25 -10.46 7.5
vertex 1.25 -9.86 7.5
endloop
endfacet
facet normal 0 0 1
outer loop
vertex -1.25 -12.4 7.5
vertex 1.25 -10.46 7.5
vertex -1.25 -7.32 7.5
endloop
endfacet
facet normal 0 0 1
outer loop
vertex -1.25 -13 7.5
vertex 1.25 -10.46 7.5
vertex -1.25 -12.4 7.5
endloop
endfacet
facet normal 1.268826313857323e-15 0 0.9999999999999999
outer loop
vertex -1.25 -13 7.5
vertex 1.25 -14.94 7.5
vertex 1.25 -10.46 7.5
endloop
endfacet
facet normal 0 0 1
outer loop
vertex -1.25 -18.08 7.5
vertex 1.25 -14.94 7.5
vertex -1.25 -13 7.5
endloop
endfacet
facet normal 0 0 0.9999999999999999
outer loop
vertex -1.25 -19.235 7.5
vertex 1.25 -14.94 7.5
vertex -1.25 -18.08 7.5
endloop
endfacet
facet normal 0 0 0.9999999999999999
outer loop
vertex 1.25 -14.94 7.5
vertex -1.25 -19.235 7.5
vertex 1.25 -19.235 7.5
endloop
endfacet
facet normal 0 0 -1
outer loop
vertex 0 5.38 0
vertex 1.25 7.32 0
vertex 1.25 5.38 0
endloop
endfacet
facet normal 0 0 -1
outer loop
vertex 0 5.38 0
vertex 0 7.32 0
vertex 1.25 7.32 0
endloop
endfacet
facet normal 0 0 -1
outer loop
vertex -1.25 5.38 0
vertex 0 7.32 0
vertex 0 5.38 0
endloop
endfacet
facet normal 0 0 -1
outer loop
vertex 0 7.32 0
vertex -1.25 5.38 0
vertex -1.25 7.32 0
endloop
endfacet
facet normal 0 0 -1
outer loop
vertex -1.25 4.78 0
vertex 0 5.38 0
vertex 0 4.78 0
endloop
endfacet
facet normal 0 0 -1
outer loop
vertex 0 5.38 0
vertex -1.25 4.78 0
vertex -1.25 5.38 0
endloop
endfacet
facet normal 0 0 -1
outer loop
vertex 1.25 0.3 0
vertex 0 2.24 0
vertex 1.25 2.24 0
endloop
endfacet
facet normal 0 0 -1
outer loop
vertex 0 0.3 0
vertex 0 2.24 0
vertex 1.25 0.3 0
endloop
endfacet
facet normal 0 0 -1
outer loop
vertex -1.25 0.3 0
vertex 0 2.24 0
vertex 0 0.3 0
endloop
endfacet
facet normal 0 0 -1
outer loop
vertex 0 2.24 0
vertex -1.25 0.3 0
vertex -1.25 2.24 0
endloop
endfacet
facet normal 0 0 -1
outer loop
vertex 1.25 -4.78 0
vertex 0 -2.84 0
vertex 1.25 -2.84 0
endloop
endfacet
facet normal 0 0 -1
outer loop
vertex 0 -4.78 0
vertex 0 -2.84 0
vertex 1.25 -4.78 0
endloop
endfacet
facet normal 0 0 -1
outer loop
vertex -1.25 -4.78 0
vertex 0 -2.84 0
vertex 0 -4.78 0
endloop
endfacet
facet normal 0 0 -1
outer loop
vertex 0 -2.84 0
vertex -1.25 -4.78 0
vertex -1.25 -2.84 0
endloop
endfacet
facet normal 0 0 -1
outer loop
vertex 1.25 -9.86 0
vertex 0 -7.92 0
vertex 1.25 -7.92 0
endloop
endfacet
facet normal 0 0 -1
outer loop
vertex 0 -9.86 0
vertex 0 -7.92 0
vertex 1.25 -9.86 0
endloop
endfacet
facet normal 0 0 -1
outer loop
vertex -1.25 -9.86 0
vertex 0 -7.92 0
vertex 0 -9.86 0
endloop
endfacet
facet normal 0 0 -1
outer loop
vertex 0 -7.92 0
vertex -1.25 -9.86 0
vertex -1.25 -7.92 0
endloop
endfacet
facet normal 0 0 -1
outer loop
vertex 1.25 -14.94 0
vertex 0 -13 0
vertex 1.25 -13 0
endloop
endfacet
facet normal 0 0 -1
outer loop
vertex 0 -14.94 0
vertex 0 -13 0
vertex 1.25 -14.94 0
endloop
endfacet
facet normal 0 0 -1
outer loop
vertex -1.25 -14.94 0
vertex 0 -13 0
vertex 0 -14.94 0
endloop
endfacet
facet normal 0 0 -1
outer loop
vertex 0 -13 0
vertex -1.25 -14.94 0
vertex -1.25 -13 0
endloop
endfacet
facet normal 0 0 -1
outer loop
vertex 1.25 -19.235 0
vertex 0 -18.08 0
vertex 1.25 -18.08 0
endloop
endfacet
facet normal 0 0 -1
outer loop
vertex -1.25 -19.235 0
vertex 0 -18.08 0
vertex 1.25 -19.235 0
endloop
endfacet
facet normal 0 0 -1
outer loop
vertex 0 -18.08 0
vertex -1.25 -19.235 0
vertex -1.25 -18.08 0
endloop
endfacet
facet normal 0 0 -1
outer loop
vertex 0 10.46 0
vertex 1.25 12.4 0
vertex 1.25 10.46 0
endloop
endfacet
facet normal 0 0 -1
outer loop
vertex 0 10.46 0
vertex 0 12.4 0
vertex 1.25 12.4 0
endloop
endfacet
facet normal 0 0 -1
outer loop
vertex -1.25 10.46 0
vertex 0 12.4 0
vertex 0 10.46 0
endloop
endfacet
facet normal 0 0 -1
outer loop
vertex 0 12.4 0
vertex -1.25 10.46 0
vertex -1.25 12.4 0
endloop
endfacet
facet normal 0 0 -1
outer loop
vertex -1.25 9.86 0
vertex 0 10.46 0
vertex 0 9.86 0
endloop
endfacet
facet normal 0 0 -1
outer loop
vertex 0 10.46 0
vertex -1.25 9.86 0
vertex -1.25 10.46 0
endloop
endfacet
facet normal 0 0 -1
outer loop
vertex 0 15.54 0
vertex 1.25 17.48 0
vertex 1.25 15.54 0
endloop
endfacet
facet normal 0 0 -1
outer loop
vertex 0 15.54 0
vertex 0 17.48 0
vertex 1.25 17.48 0
endloop
endfacet
facet normal 0 0 -1
outer loop
vertex -1.25 15.54 0
vertex 0 17.48 0
vertex 0 15.54 0
endloop
endfacet
facet normal 0 0 -1
outer loop
vertex 0 17.48 0
vertex -1.25 15.54 0
vertex -1.25 17.48 0
endloop
endfacet
facet normal 0 0 -1
outer loop
vertex -1.25 14.94 0
vertex 0 15.54 0
vertex 0 14.94 0
endloop
endfacet
facet normal 0 0 -1
outer loop
vertex 0 15.54 0
vertex -1.25 14.94 0
vertex -1.25 15.54 0
endloop
endfacet
facet normal 0 0 -1
outer loop
vertex 0 -18.08 0
vertex 1.25 -17.48 0
vertex 1.25 -18.08 0
endloop
endfacet
facet normal 0 0 -1
outer loop
vertex 1.25 -17.48 0
vertex 0 -18.08 0
vertex 0 -17.48 0
endloop
endfacet
facet normal 0 0 -1
outer loop
vertex 0 12.4 0
vertex 1.25 13 0
vertex 1.25 12.4 0
endloop
endfacet
facet normal 0 0 -1
outer loop
vertex 1.25 13 0
vertex 0 12.4 0
vertex 0 13 0
endloop
endfacet
facet normal 0 0 -1
outer loop
vertex 0 7.32 0
vertex 1.25 7.92 0
vertex 1.25 7.32 0
endloop
endfacet
facet normal 0 0 -1
outer loop
vertex 1.25 7.92 0
vertex 0 7.32 0
vertex 0 7.92 0
endloop
endfacet
facet normal 0 0 -0.9999999999999999
outer loop
vertex 0 2.24 0
vertex 1.25 2.84 0
vertex 1.25 2.24 0
endloop
endfacet
facet normal 0 0 -1
outer loop
vertex 1.25 2.84 0
vertex 0 2.24 0
vertex 0 2.84 0
endloop
endfacet
facet normal 0 0 -1
outer loop
vertex 0 -2.84 0
vertex 1.25 -2.24 0
vertex 1.25 -2.84 0
endloop
endfacet
facet normal 0 0 -0.9999999999999999
outer loop
vertex 1.25 -2.24 0
vertex 0 -2.84 0
vertex 0 -2.24 0
endloop
endfacet
facet normal 0 0 -1
outer loop
vertex 0 -7.92 0
vertex 1.25 -7.32 0
vertex 1.25 -7.92 0
endloop
endfacet
facet normal 0 0 -1
outer loop
vertex 1.25 -7.32 0
vertex 0 -7.92 0
vertex 0 -7.32 0
endloop
endfacet
facet normal 0 0 -1
outer loop
vertex 0 -12.4 0
vertex 1.25 -10.46 0
vertex 1.25 -12.4 0
endloop
endfacet
facet normal 0 0 -1
outer loop
vertex 0 -12.4 0
vertex 0 -10.46 0
vertex 1.25 -10.46 0
endloop
endfacet
facet normal 0 0 -1
outer loop
vertex 0 -12.4 0
vertex -1.25 -10.46 0
vertex 0 -10.46 0
endloop
endfacet
facet normal 0 0 -1
outer loop
vertex -1.25 -10.46 0
vertex 0 -12.4 0
vertex -1.25 -12.4 0
endloop
endfacet
facet normal 0 0 -1
outer loop
vertex 0 -13 0
vertex 1.25 -12.4 0
vertex 1.25 -13 0
endloop
endfacet
facet normal 0 0 -1
outer loop
vertex 1.25 -12.4 0
vertex 0 -13 0
vertex 0 -12.4 0
endloop
endfacet
facet normal 0 0 -1
outer loop
vertex 0 -7.32 0
vertex 1.25 -5.38 0
vertex 1.25 -7.32 0
endloop
endfacet
facet normal 0 0 -1
outer loop
vertex 0 -7.32 0
vertex 0 -5.38 0
vertex 1.25 -5.38 0
endloop
endfacet
facet normal 0 0 -1
outer loop
vertex 0 -7.32 0
vertex -1.25 -5.38 0
vertex 0 -5.38 0
endloop
endfacet
facet normal 0 0 -1
outer loop
vertex -1.25 -5.38 0
vertex 0 -7.32 0
vertex -1.25 -7.32 0
endloop
endfacet
facet normal 0 0 -1
outer loop
vertex 0 -2.24 0
vertex 1.25 -0.3 0
vertex 1.25 -2.24 0
endloop
endfacet
facet normal 0 0 -1
outer loop
vertex 0 -2.24 0
vertex 0 -0.3 0
vertex 1.25 -0.3 0
endloop
endfacet
facet normal 0 0 -1
outer loop
vertex 0 -2.24 0
vertex -1.25 -0.3 0
vertex 0 -0.3 0
endloop
endfacet
facet normal 0 0 -1
outer loop
vertex -1.25 -0.3 0
vertex 0 -2.24 0
vertex -1.25 -2.24 0
endloop
endfacet
facet normal 0 0 -1
outer loop
vertex 0 2.84 0
vertex 1.25 4.78 0
vertex 1.25 2.84 0
endloop
endfacet
facet normal 0 0 -1
outer loop
vertex 0 2.84 0
vertex 0 4.78 0
vertex 1.25 4.78 0
endloop
endfacet
facet normal 0 0 -1
outer loop
vertex 0 2.84 0
vertex -1.25 4.78 0
vertex 0 4.78 0
endloop
endfacet
facet normal 0 0 -1
outer loop
vertex -1.25 4.78 0
vertex 0 2.84 0
vertex -1.25 2.84 0
endloop
endfacet
facet normal 0 0 -1
outer loop
vertex 1.25 7.92 0
vertex 0 9.86 0
vertex 1.25 9.86 0
endloop
endfacet
facet normal 0 0 -1
outer loop
vertex 0 7.92 0
vertex 0 9.86 0
vertex 1.25 7.92 0
endloop
endfacet
facet normal 0 0 -1
outer loop
vertex 0 7.92 0
vertex -1.25 9.86 0
vertex 0 9.86 0
endloop
endfacet
facet normal 0 0 -1
outer loop
vertex -1.25 9.86 0
vertex 0 7.92 0
vertex -1.25 7.92 0
endloop
endfacet
facet normal 0 0 -1
outer loop
vertex 1.25 13 0
vertex 0 14.94 0
vertex 1.25 14.94 0
endloop
endfacet
facet normal 0 0 -1
outer loop
vertex 0 13 0
vertex 0 14.94 0
vertex 1.25 13 0
endloop
endfacet
facet normal 0 0 -1
outer loop
vertex 0 13 0
vertex -1.25 14.94 0
vertex 0 14.94 0
endloop
endfacet
facet normal 0 0 -1
outer loop
vertex -1.25 14.94 0
vertex 0 13 0
vertex -1.25 13 0
endloop
endfacet
facet normal 0 0 -1
outer loop
vertex 0 18.08 0
vertex 1.25 19.235 0
vertex 1.25 18.08 0
endloop
endfacet
facet normal 0 0 -1
outer loop
vertex 0 18.08 0
vertex -1.25 19.235 0
vertex 1.25 19.235 0
endloop
endfacet
facet normal 0 0 -1
outer loop
vertex -1.25 19.235 0
vertex 0 18.08 0
vertex -1.25 18.08 0
endloop
endfacet
facet normal 0 0 -1
outer loop
vertex 0 17.48 0
vertex 1.25 18.08 0
vertex 1.25 17.48 0
endloop
endfacet
facet normal 0 0 -1
outer loop
vertex 1.25 18.08 0
vertex 0 17.48 0
vertex 0 18.08 0
endloop
endfacet
facet normal 0 0 -1
outer loop
vertex 0 -17.48 0
vertex 1.25 -15.54 0
vertex 1.25 -17.48 0
endloop
endfacet
facet normal 0 0 -1
outer loop
vertex 0 -17.48 0
vertex 0 -15.54 0
vertex 1.25 -15.54 0
endloop
endfacet
facet normal 0 0 -1
outer loop
vertex -1.25 -17.48 0
vertex 0 -15.54 0
vertex 0 -17.48 0
endloop
endfacet
facet normal 0 0 -1
outer loop
vertex 0 -15.54 0
vertex -1.25 -17.48 0
vertex -1.25 -15.54 0
endloop
endfacet
facet normal 0 0 -1
outer loop
vertex -1.25 -0.3 0
vertex 0 0.3 0
vertex 0 -0.3 0
endloop
endfacet
facet normal 0 0 -1
outer loop
vertex 0 0.3 0
vertex -1.25 -0.3 0
vertex -1.25 0.3 0
endloop
endfacet
facet normal 0 0 -1
outer loop
vertex -1.25 -5.38 0
vertex 0 -4.78 0
vertex 0 -5.38 0
endloop
endfacet
facet normal 0 0 -1
outer loop
vertex 0 -4.78 0
vertex -1.25 -5.38 0
vertex -1.25 -4.78 0
endloop
endfacet
facet normal 0 0 -1
outer loop
vertex -1.25 -10.46 0
vertex 0 -9.86 0
vertex 0 -10.46 0
endloop
endfacet
facet normal 0 0 -1
outer loop
vertex 0 -9.86 0
vertex -1.25 -10.46 0
vertex -1.25 -9.86 0
endloop
endfacet
facet normal 0 0 -1
outer loop
vertex 0 -15.54 0
vertex -1.25 -14.94 0
vertex 0 -14.94 0
endloop
endfacet
facet normal 0 0 -1
outer loop
vertex -1.25 -14.94 0
vertex 0 -15.54 0
vertex -1.25 -15.54 0
endloop
endfacet
facet normal 0 -1 0
outer loop
vertex -1.25 -19.235 7.5
vertex 1.25 -19.235 0
vertex 1.25 -19.235 7.5
endloop
endfacet
facet normal 0 -1 0
outer loop
vertex 1.25 -19.235 0
vertex -1.25 -19.235 7.5
vertex -1.25 -19.235 0
endloop
endfacet
facet normal 1 0 0
outer loop
vertex 1.25 -19.235 7.5
vertex 1.25 -15.54 0.25
vertex 1.25 -15.54 7.5
endloop
endfacet
facet normal 0.9999999999999999 0 0
outer loop
vertex 1.25 -19.235 7.5
vertex 1.25 -15.54 0
vertex 1.25 -15.54 0.25
endloop
endfacet
facet normal 1 0 0
outer loop
vertex 1.25 -19.235 7.5
vertex 1.25 -18.08 0
vertex 1.25 -15.54 0
endloop
endfacet
facet normal 1 0 0
outer loop
vertex 1.25 -18.08 0
vertex 1.25 -19.235 7.5
vertex 1.25 -19.235 0
endloop
endfacet
facet normal 1 0 0
outer loop
vertex 1.25 -14.94 0.25
vertex 1.25 -10.46 7.5
vertex 1.25 -14.94 7.5
endloop
endfacet
facet normal 1 0 0
outer loop
vertex 1.25 -14.94 0.25
vertex 1.25 -10.46 0.25
vertex 1.25 -10.46 7.5
endloop
endfacet
facet normal 1 0 0
outer loop
vertex 1.25 -14.94 0.25
vertex 1.25 -10.46 0
vertex 1.25 -10.46 0.25
endloop
endfacet
facet normal 1 0 0
outer loop
vertex 1.25 -14.94 0
vertex 1.25 -10.46 0
vertex 1.25 -14.94 0.25
endloop
endfacet
facet normal 1 0 0
outer loop
vertex 1.25 -15.54 0.25
vertex 1.25 -14.94 7.5
vertex 1.25 -15.54 7.5
endloop
endfacet
facet normal 1 0 0
outer loop
vertex 1.25 -14.94 7.5
vertex 1.25 -15.54 0.25
vertex 1.25 -14.94 0.25
endloop
endfacet
facet normal 1 0 0
outer loop
vertex 1.25 -9.86 0.25
vertex 1.25 -5.38 7.5
vertex 1.25 -9.86 7.5
endloop
endfacet
facet normal 1 0 0
outer loop
vertex 1.25 -9.86 0.25
vertex 1.25 -5.38 0.25
vertex 1.25 -5.38 7.5
endloop
endfacet
facet normal 1 0 0
outer loop
vertex 1.25 -9.86 0.25
vertex 1.25 -5.38 0
vertex 1.25 -5.38 0.25
endloop
endfacet
facet normal 1 0 0
outer loop
vertex 1.25 -9.86 0
vertex 1.25 -5.38 0
vertex 1.25 -9.86 0.25
endloop
endfacet
facet normal 0.9999999999999999 0 0
outer loop
vertex 1.25 -10.46 0.25
vertex 1.25 -9.86 7.5
vertex 1.25 -10.46 7.5
endloop
endfacet
facet normal 0.9999999999999999 0 0
outer loop
vertex 1.25 -9.86 7.5
vertex 1.25 -10.46 0.25
vertex 1.25 -9.86 0.25
endloop
endfacet
facet normal 1 0 0
outer loop
vertex 1.25 -4.78 0.25
vertex 1.25 -0.3 7.5
vertex 1.25 -4.78 7.5
endloop
endfacet
facet normal 1 0 0
outer loop
vertex 1.25 -4.78 0.25
vertex 1.25 -0.3 0.25
vertex 1.25 -0.3 7.5
endloop
endfacet
facet normal 1 0 0
outer loop
vertex 1.25 -4.78 0.25
vertex 1.25 -0.3 0
vertex 1.25 -0.3 0.25
endloop
endfacet
facet normal 1 0 0
outer loop
vertex 1.25 -4.78 0
vertex 1.25 -0.3 0
vertex 1.25 -4.78 0.25
endloop
endfacet
facet normal 1 0 0
outer loop
vertex 1.25 -5.38 0.25
vertex 1.25 -4.78 7.5
vertex 1.25 -5.38 7.5
endloop
endfacet
facet normal 1 0 0
outer loop
vertex 1.25 -4.78 7.5
vertex 1.25 -5.38 0.25
vertex 1.25 -4.78 0.25
endloop
endfacet
facet normal 1 0 0
outer loop
vertex 1.25 0.3 0.25
vertex 1.25 4.78 7.5
vertex 1.25 0.3 7.5
endloop
endfacet
facet normal 1 0 0
outer loop
vertex 1.25 0.3 0.25
vertex 1.25 4.78 0.25
vertex 1.25 4.78 7.5
endloop
endfacet
facet normal 1 0 0
outer loop
vertex 1.25 0.3 0.25
vertex 1.25 4.78 0
vertex 1.25 4.78 0.25
endloop
endfacet
facet normal 1 0 0
outer loop
vertex 1.25 0.3 0
vertex 1.25 4.78 0
vertex 1.25 0.3 0.25
endloop
endfacet
facet normal 1 0 0
outer loop
vertex 1.25 -0.3 0.25
vertex 1.25 0.3 7.5
vertex 1.25 -0.3 7.5
endloop
endfacet
facet normal 1 0 0
outer loop
vertex 1.25 0.3 7.5
vertex 1.25 -0.3 0.25
vertex 1.25 0.3 0.25
endloop
endfacet
facet normal 1 0 0
outer loop
vertex 1.25 5.38 0.25
vertex 1.25 9.86 7.5
vertex 1.25 5.38 7.5
endloop
endfacet
facet normal 1 0 0
outer loop
vertex 1.25 5.38 0.25
vertex 1.25 9.86 0.25
vertex 1.25 9.86 7.5
endloop
endfacet
facet normal 1 0 0
outer loop
vertex 1.25 5.38 0.25
vertex 1.25 9.86 0
vertex 1.25 9.86 0.25
endloop
endfacet
facet normal 1 0 0
outer loop
vertex 1.25 5.38 0
vertex 1.25 9.86 0
vertex 1.25 5.38 0.25
endloop
endfacet
facet normal 1 0 0
outer loop
vertex 1.25 4.78 0.25
vertex 1.25 5.38 7.5
vertex 1.25 4.78 7.5
endloop
endfacet
facet normal 1 0 0
outer loop
vertex 1.25 5.38 7.5
vertex 1.25 4.78 0.25
vertex 1.25 5.38 0.25
endloop
endfacet
facet normal 1 0 0
outer loop
vertex 1.25 10.46 0.25
vertex 1.25 14.94 7.5
vertex 1.25 10.46 7.5
endloop
endfacet
facet normal 1 0 0
outer loop
vertex 1.25 10.46 0.25
vertex 1.25 14.94 0.25
vertex 1.25 14.94 7.5
endloop
endfacet
facet normal 1 0 0
outer loop
vertex 1.25 10.46 0.25
vertex 1.25 14.94 0
vertex 1.25 14.94 0.25
endloop
endfacet
facet normal 1 0 0
outer loop
vertex 1.25 10.46 0
vertex 1.25 14.94 0
vertex 1.25 10.46 0.25
endloop
endfacet
facet normal 0.9999999999999999 0 0
outer loop
vertex 1.25 9.86 0.25
vertex 1.25 10.46 7.5
vertex 1.25 9.86 7.5
endloop
endfacet
facet normal 0.9999999999999999 0 0
outer loop
vertex 1.25 10.46 7.5
vertex 1.25 9.86 0.25
vertex 1.25 10.46 0.25
endloop
endfacet
facet normal 1 0 0
outer loop
vertex 1.25 15.54 0.25
vertex 1.25 19.235 7.5
vertex 1.25 15.54 7.5
endloop
endfacet
facet normal 0.9999999999999999 0 0
outer loop
vertex 1.25 15.54 0
vertex 1.25 19.235 7.5
vertex 1.25 15.54 0.25
endloop
endfacet
facet normal 1 0 0
outer loop
vertex 1.25 15.54 0
vertex 1.25 19.235 0
vertex 1.25 19.235 7.5
endloop
endfacet
facet normal 1 0 0
outer loop
vertex 1.25 14.94 0.25
vertex 1.25 15.54 7.5
vertex 1.25 14.94 7.5
endloop
endfacet
facet normal 1 0 0
outer loop
vertex 1.25 15.54 7.5
vertex 1.25 14.94 0.25
vertex 1.25 15.54 0.25
endloop
endfacet
facet normal -1 0 0
outer loop
vertex -2.7 7.32 0
vertex -2.7 7.92 0.25
vertex -2.7 7.92 0
endloop
endfacet
facet normal -1 0 0
outer loop
vertex -2.7 7.92 0.25
vertex -2.7 7.32 0
vertex -2.7 7.32 0.25
endloop
endfacet
facet normal 0 1 0
outer loop
vertex -1.25 7.92 0
vertex 0 7.92 0.25
vertex 0 7.92 0
endloop
endfacet
facet normal 0 1 0
outer loop
vertex -1.25 7.92 0
vertex -1.25 7.92 0.25
vertex 0 7.92 0.25
endloop
endfacet
facet normal 0 1 0
outer loop
vertex -2.7 7.92 0
vertex -1.25 7.92 0.25
vertex -1.25 7.92 0
endloop
endfacet
facet normal 0 1 0
outer loop
vertex -1.25 7.92 0.25
vertex -2.7 7.92 0
vertex -2.7 7.92 0.25
endloop
endfacet
facet normal 1 0 0
outer loop
vertex 0 7.32 0.25
vertex 0 7.92 0
vertex 0 7.92 0.25
endloop
endfacet
facet normal 1 0 0
outer loop
vertex 0 7.92 0
vertex 0 7.32 0.25
vertex 0 7.32 0
endloop
endfacet
facet normal 0 -1 0
outer loop
vertex -1.25 7.32 0.25
vertex 0 7.32 0
vertex 0 7.32 0.25
endloop
endfacet
facet normal 0 -1 0
outer loop
vertex -1.25 7.32 0.25
vertex -1.25 7.32 0
vertex 0 7.32 0
endloop
endfacet
facet normal 0 -1 0
outer loop
vertex -2.7 7.32 0.25
vertex -1.25 7.32 0
vertex -1.25 7.32 0.25
endloop
endfacet
facet normal 0 -1 0
outer loop
vertex -1.25 7.32 0
vertex -2.7 7.32 0.25
vertex -2.7 7.32 0
endloop
endfacet
facet normal 0 0 1
outer loop
vertex -1.25 7.92 0.25
vertex 0 7.32 0.25
vertex 0 7.92 0.25
endloop
endfacet
facet normal 0 0 1
outer loop
vertex -1.25 7.92 0.25
vertex -1.25 7.32 0.25
vertex 0 7.32 0.25
endloop
endfacet
facet normal 0 0 0.9999999999999999
outer loop
vertex -2.7 7.92 0.25
vertex -1.25 7.32 0.25
vertex -1.25 7.92 0.25
endloop
endfacet
facet normal 0 0 1
outer loop
vertex -1.25 7.32 0.25
vertex -2.7 7.92 0.25
vertex -2.7 7.32 0.25
endloop
endfacet
facet normal 0 0 -1
outer loop
vertex -1.25 7.32 0
vertex 0 7.92 0
vertex 0 7.32 0
endloop
endfacet
facet normal 0 0 -1
outer loop
vertex -1.25 7.32 0
vertex -1.25 7.92 0
vertex 0 7.92 0
endloop
endfacet
facet normal 0 0 -1
outer loop
vertex -2.7 7.32 0
vertex -1.25 7.92 0
vertex -1.25 7.32 0
endloop
endfacet
facet normal 0 0 -0.9999999999999999
outer loop
vertex -1.25 7.92 0
vertex -2.7 7.32 0
vertex -2.7 7.92 0
endloop
endfacet
facet normal -1 0 0
outer loop
vertex -2.7 2.24 0
vertex -2.7 2.84 0.25
vertex -2.7 2.84 0
endloop
endfacet
facet normal -1 0 0
outer loop
vertex -2.7 2.84 0.25
vertex -2.7 2.24 0
vertex -2.7 2.24 0.25
endloop
endfacet
facet normal 0 1 0
outer loop
vertex -1.25 2.84 0
vertex 0 2.84 0.25
vertex 0 2.84 0
endloop
endfacet
facet normal 0 1 0
outer loop
vertex -1.25 2.84 0
vertex -1.25 2.84 0.25
vertex 0 2.84 0.25
endloop
endfacet
facet normal 0 1 0
outer loop
vertex -2.7 2.84 0
vertex -1.25 2.84 0.25
vertex -1.25 2.84 0
endloop
endfacet
facet normal 0 1 0
outer loop
vertex -1.25 2.84 0.25
vertex -2.7 2.84 0
vertex -2.7 2.84 0.25
endloop
endfacet
facet normal 1 0 0
outer loop
vertex 0 2.24 0.25
vertex 0 2.84 0
vertex 0 2.84 0.25
endloop
endfacet
facet normal 1 0 0
outer loop
vertex 0 2.84 0
vertex 0 2.24 0.25
vertex 0 2.24 0
endloop
endfacet
facet normal 0 -1 0
outer loop
vertex -1.25 2.24 0.25
vertex 0 2.24 0
vertex 0 2.24 0.25
endloop
endfacet
facet normal 0 -1 0
outer loop
vertex -1.25 2.24 0.25
vertex -1.25 2.24 0
vertex 0 2.24 0
endloop
endfacet
facet normal 0 -1 0
outer loop
vertex -2.7 2.24 0.25
vertex -1.25 2.24 0
vertex -1.25 2.24 0.25
endloop
endfacet
facet normal 0 -1 0
outer loop
vertex -1.25 2.24 0
vertex -2.7 2.24 0.25
vertex -2.7 2.24 0
endloop
endfacet
facet normal 0 0 1
outer loop
vertex -1.25 2.84 0.25
vertex 0 2.24 0.25
vertex 0 2.84 0.25
endloop
endfacet
facet normal 0 0 0.9999999999999999
outer loop
vertex -1.25 2.84 0.25
vertex -1.25 2.24 0.25
vertex 0 2.24 0.25
endloop
endfacet
facet normal 0 0 1
outer loop
vertex -2.7 2.84 0.25
vertex -1.25 2.24 0.25
vertex -1.25 2.84 0.25
endloop
endfacet
facet normal 0 0 1
outer loop
vertex -1.25 2.24 0.25
vertex -2.7 2.84 0.25
vertex -2.7 2.24 0.25
endloop
endfacet
facet normal 0 0 -0.9999999999999999
outer loop
vertex -1.25 2.24 0
vertex 0 2.84 0
vertex 0 2.24 0
endloop
endfacet
facet normal 0 0 -1
outer loop
vertex -1.25 2.24 0
vertex -1.25 2.84 0
vertex 0 2.84 0
endloop
endfacet
facet normal 0 0 -1
outer loop
vertex -2.7 2.24 0
vertex -1.25 2.84 0
vertex -1.25 2.24 0
endloop
endfacet
facet normal 0 0 -1
outer loop
vertex -1.25 2.84 0
vertex -2.7 2.24 0
vertex -2.7 2.84 0
endloop
endfacet
facet normal -1 0 0
outer loop
vertex 0 5.38 0
vertex 0 4.78 0.25
vertex 0 5.38 0.25
endloop
endfacet
facet normal -1 0 0
outer loop
vertex 0 4.78 0.25
vertex 0 5.38 0
vertex 0 4.78 0
endloop
endfacet
facet normal 0 1 0
outer loop
vertex 1.25 5.38 0
vertex 2.7 5.38 0.25
vertex 2.7 5.38 0
endloop
endfacet
facet normal 0 1 0
outer loop
vertex 1.25 5.38 0
vertex 1.25 5.38 0.25
vertex 2.7 5.38 0.25
endloop
endfacet
facet normal 0 1 0
outer loop
vertex 0 5.38 0
vertex 1.25 5.38 0.25
vertex 1.25 5.38 0
endloop
endfacet
facet normal 0 1 0
outer loop
vertex 1.25 5.38 0.25
vertex 0 5.38 0
vertex 0 5.38 0.25
endloop
endfacet
facet normal 1 0 0
outer loop
vertex 2.7 4.78 0.25
vertex 2.7 5.38 0
vertex 2.7 5.38 0.25
endloop
endfacet
facet normal 1 0 0
outer loop
vertex 2.7 5.38 0
vertex 2.7 4.78 0.25
vertex 2.7 4.78 0
endloop
endfacet
facet normal 0 -1 0
outer loop
vertex 1.25 4.78 0.25
vertex 2.7 4.78 0
vertex 2.7 4.78 0.25
endloop
endfacet
facet normal 0 -1 0
outer loop
vertex 1.25 4.78 0.25
vertex 1.25 4.78 0
vertex 2.7 4.78 0
endloop
endfacet
facet normal 0 -1 0
outer loop
vertex 0 4.78 0.25
vertex 1.25 4.78 0
vertex 1.25 4.78 0.25
endloop
endfacet
facet normal 0 -1 0
outer loop
vertex 1.25 4.78 0
vertex 0 4.78 0.25
vertex 0 4.78 0
endloop
endfacet
facet normal 0 0 1
outer loop
vertex 1.25 5.38 0.25
vertex 2.7 4.78 0.25
vertex 2.7 5.38 0.25
endloop
endfacet
facet normal 0 0 0.9999999999999999
outer loop
vertex 1.25 5.38 0.25
vertex 1.25 4.78 0.25
vertex 2.7 4.78 0.25
endloop
endfacet
facet normal 0 0 1
outer loop
vertex 0 5.38 0.25
vertex 1.25 4.78 0.25
vertex 1.25 5.38 0.25
endloop
endfacet
facet normal 0 0 1
outer loop
vertex 1.25 4.78 0.25
vertex 0 5.38 0.25
vertex 0 4.78 0.25
endloop
endfacet
facet normal 0 0 -0.9999999999999999
outer loop
vertex 1.25 4.78 0
vertex 2.7 5.38 0
vertex 2.7 4.78 0
endloop
endfacet
facet normal 0 0 -1
outer loop
vertex 1.25 4.78 0
vertex 1.25 5.38 0
vertex 2.7 5.38 0
endloop
endfacet
facet normal 0 0 -1
outer loop
vertex 1.25 4.78 0
vertex 0 5.38 0
vertex 1.25 5.38 0
endloop
endfacet
facet normal 0 0 -1
outer loop
vertex 0 5.38 0
vertex 1.25 4.78 0
vertex 0 4.78 0
endloop
endfacet
facet normal -1 0 0
outer loop
vertex 0 0.3 0
vertex 0 -0.3 0.25
vertex 0 0.3 0.25
endloop
endfacet
facet normal -1 0 0
outer loop
vertex 0 -0.3 0.25
vertex 0 0.3 0
vertex 0 -0.3 0
endloop
endfacet
facet normal 0 1 0
outer loop
vertex 1.25 0.3 0
vertex 2.7 0.3 0.25
vertex 2.7 0.3 0
endloop
endfacet
facet normal 0 1 0
outer loop
vertex 1.25 0.3 0
vertex 1.25 0.3 0.25
vertex 2.7 0.3 0.25
endloop
endfacet
facet normal 0 1 0
outer loop
vertex 0 0.3 0
vertex 1.25 0.3 0.25
vertex 1.25 0.3 0
endloop
endfacet
facet normal 0 1 0
outer loop
vertex 1.25 0.3 0.25
vertex 0 0.3 0
vertex 0 0.3 0.25
endloop
endfacet
facet normal 1 0 0
outer loop
vertex 2.7 -0.3 0.25
vertex 2.7 0.3 0
vertex 2.7 0.3 0.25
endloop
endfacet
facet normal 1 0 0
outer loop
vertex 2.7 0.3 0
vertex 2.7 -0.3 0.25
vertex 2.7 -0.3 0
endloop
endfacet
facet normal 0 -1 0
outer loop
vertex 1.25 -0.3 0.25
vertex 2.7 -0.3 0
vertex 2.7 -0.3 0.25
endloop
endfacet
facet normal 0 -1 0
outer loop
vertex 1.25 -0.3 0.25
vertex 1.25 -0.3 0
vertex 2.7 -0.3 0
endloop
endfacet
facet normal 0 -1 0
outer loop
vertex 0 -0.3 0.25
vertex 1.25 -0.3 0
vertex 1.25 -0.3 0.25
endloop
endfacet
facet normal 0 -1 0
outer loop
vertex 1.25 -0.3 0
vertex 0 -0.3 0.25
vertex 0 -0.3 0
endloop
endfacet
facet normal 0 0 1
outer loop
vertex 1.25 0.3 0.25
vertex 2.7 -0.3 0.25
vertex 2.7 0.3 0.25
endloop
endfacet
facet normal 0 0 1
outer loop
vertex 1.25 0.3 0.25
vertex 1.25 -0.3 0.25
vertex 2.7 -0.3 0.25
endloop
endfacet
facet normal 0 0 1
outer loop
vertex 0 0.3 0.25
vertex 1.25 -0.3 0.25
vertex 1.25 0.3 0.25
endloop
endfacet
facet normal 0 0 1
outer loop
vertex 1.25 -0.3 0.25
vertex 0 0.3 0.25
vertex 0 -0.3 0.25
endloop
endfacet
facet normal 0 0 -1
outer loop
vertex 1.25 -0.3 0
vertex 2.7 0.3 0
vertex 2.7 -0.3 0
endloop
endfacet
facet normal 0 0 -1
outer loop
vertex 1.25 -0.3 0
vertex 1.25 0.3 0
vertex 2.7 0.3 0
endloop
endfacet
facet normal 0 0 -1
outer loop
vertex 1.25 -0.3 0
vertex 0 0.3 0
vertex 1.25 0.3 0
endloop
endfacet
facet normal 0 0 -1
outer loop
vertex 0 0.3 0
vertex 1.25 -0.3 0
vertex 0 -0.3 0
endloop
endfacet
facet normal -1 0 0
outer loop
vertex -2.7 17.48 0
vertex -2.7 18.08 0.25
vertex -2.7 18.08 0
endloop
endfacet
facet normal -1 0 0
outer loop
vertex -2.7 18.08 0.25
vertex -2.7 17.48 0
vertex -2.7 17.48 0.25
endloop
endfacet
facet normal 0 1 0
outer loop
vertex -1.25 18.08 0
vertex 0 18.08 0.25
vertex 0 18.08 0
endloop
endfacet
facet normal 0 1 0
outer loop
vertex -1.25 18.08 0
vertex -1.25 18.08 0.25
vertex 0 18.08 0.25
endloop
endfacet
facet normal 0 1 0
outer loop
vertex -2.7 18.08 0
vertex -1.25 18.08 0.25
vertex -1.25 18.08 0
endloop
endfacet
facet normal 0 1 0
outer loop
vertex -1.25 18.08 0.25
vertex -2.7 18.08 0
vertex -2.7 18.08 0.25
endloop
endfacet
facet normal 1 0 0
outer loop
vertex 0 17.48 0.25
vertex 0 18.08 0
vertex 0 18.08 0.25
endloop
endfacet
facet normal 1 0 0
outer loop
vertex 0 18.08 0
vertex 0 17.48 0.25
vertex 0 17.48 0
endloop
endfacet
facet normal 0 -1 0
outer loop
vertex -1.25 17.48 0.25
vertex 0 17.48 0
vertex 0 17.48 0.25
endloop
endfacet
facet normal 0 -1 0
outer loop
vertex -1.25 17.48 0.25
vertex -1.25 17.48 0
vertex 0 17.48 0
endloop
endfacet
facet normal 0 -1 0
outer loop
vertex -2.7 17.48 0.25
vertex -1.25 17.48 0
vertex -1.25 17.48 0.25
endloop
endfacet
facet normal 0 -1 0
outer loop
vertex -1.25 17.48 0
vertex -2.7 17.48 0.25
vertex -2.7 17.48 0
endloop
endfacet
facet normal 0 0 1
outer loop
vertex -1.25 18.08 0.25
vertex 0 17.48 0.25
vertex 0 18.08 0.25
endloop
endfacet
facet normal 0 0 1
outer loop
vertex -1.25 18.08 0.25
vertex -1.25 17.48 0.25
vertex 0 17.48 0.25
endloop
endfacet
facet normal 0 0 1
outer loop
vertex -2.7 18.08 0.25
vertex -1.25 17.48 0.25
vertex -1.25 18.08 0.25
endloop
endfacet
facet normal 0 0 1
outer loop
vertex -1.25 17.48 0.25
vertex -2.7 18.08 0.25
vertex -2.7 17.48 0.25
endloop
endfacet
facet normal 0 0 -1
outer loop
vertex -1.25 17.48 0
vertex 0 18.08 0
vertex 0 17.48 0
endloop
endfacet
facet normal 0 0 -1
outer loop
vertex -1.25 17.48 0
vertex -1.25 18.08 0
vertex 0 18.08 0
endloop
endfacet
facet normal 0 0 -1
outer loop
vertex -2.7 17.48 0
vertex -1.25 18.08 0
vertex -1.25 17.48 0
endloop
endfacet
facet normal 0 0 -1
outer loop
vertex -1.25 18.08 0
vertex -2.7 17.48 0
vertex -2.7 18.08 0
endloop
endfacet
facet normal -1 0 0
outer loop
vertex -2.7 12.4 0
vertex -2.7 13 0.25
vertex -2.7 13 0
endloop
endfacet
facet normal -1 0 0
outer loop
vertex -2.7 13 0.25
vertex -2.7 12.4 0
vertex -2.7 12.4 0.25
endloop
endfacet
facet normal 0 1 0
outer loop
vertex -1.25 13 0
vertex 0 13 0.25
vertex 0 13 0
endloop
endfacet
facet normal 0 1 0
outer loop
vertex -1.25 13 0
vertex -1.25 13 0.25
vertex 0 13 0.25
endloop
endfacet
facet normal 0 1 0
outer loop
vertex -2.7 13 0
vertex -1.25 13 0.25
vertex -1.25 13 0
endloop
endfacet
facet normal 0 1 0
outer loop
vertex -1.25 13 0.25
vertex -2.7 13 0
vertex -2.7 13 0.25
endloop
endfacet
facet normal 1 0 0
outer loop
vertex 0 12.4 0.25
vertex 0 13 0
vertex 0 13 0.25
endloop
endfacet
facet normal 1 0 0
outer loop
vertex 0 13 0
vertex 0 12.4 0.25
vertex 0 12.4 0
endloop
endfacet
facet normal 0 -1 0
outer loop
vertex -1.25 12.4 0.25
vertex 0 12.4 0
vertex 0 12.4 0.25
endloop
endfacet
facet normal 0 -1 0
outer loop
vertex -1.25 12.4 0.25
vertex -1.25 12.4 0
vertex 0 12.4 0
endloop
endfacet
facet normal 0 -1 0
outer loop
vertex -2.7 12.4 0.25
vertex -1.25 12.4 0
vertex -1.25 12.4 0.25
endloop
endfacet
facet normal 0 -1 0
outer loop
vertex -1.25 12.4 0
vertex -2.7 12.4 0.25
vertex -2.7 12.4 0
endloop
endfacet
facet normal 0 0 1
outer loop
vertex -1.25 13 0.25
vertex 0 12.4 0.25
vertex 0 13 0.25
endloop
endfacet
facet normal 0 0 1
outer loop
vertex -1.25 13 0.25
vertex -1.25 12.4 0.25
vertex 0 12.4 0.25
endloop
endfacet
facet normal 0 0 1
outer loop
vertex -2.7 13 0.25
vertex -1.25 12.4 0.25
vertex -1.25 13 0.25
endloop
endfacet
facet normal 0 0 1
outer loop
vertex -1.25 12.4 0.25
vertex -2.7 13 0.25
vertex -2.7 12.4 0.25
endloop
endfacet
facet normal 0 0 -1
outer loop
vertex -1.25 12.4 0
vertex 0 13 0
vertex 0 12.4 0
endloop
endfacet
facet normal 0 0 -1
outer loop
vertex -1.25 12.4 0
vertex -1.25 13 0
vertex 0 13 0
endloop
endfacet
facet normal 0 0 -1
outer loop
vertex -2.7 12.4 0
vertex -1.25 13 0
vertex -1.25 12.4 0
endloop
endfacet
facet normal 0 0 -1
outer loop
vertex -1.25 13 0
vertex -2.7 12.4 0
vertex -2.7 13 0
endloop
endfacet
facet normal -1 0 0
outer loop
vertex 0 15.54 0
vertex 0 14.94 0.25
vertex 0 15.54 0.25
endloop
endfacet
facet normal -1 0 0
outer loop
vertex 0 14.94 0.25
vertex 0 15.54 0
vertex 0 14.94 0
endloop
endfacet
facet normal 0 1 0
outer loop
vertex 1.25 15.54 0
vertex 2.7 15.54 0.25
vertex 2.7 15.54 0
endloop
endfacet
facet normal 0 1 0
outer loop
vertex 1.25 15.54 0
vertex 1.25 15.54 0.25
vertex 2.7 15.54 0.25
endloop
endfacet
facet normal 0 1 0
outer loop
vertex 0 15.54 0
vertex 1.25 15.54 0.25
vertex 1.25 15.54 0
endloop
endfacet
facet normal 0 1 0
outer loop
vertex 1.25 15.54 0.25
vertex 0 15.54 0
vertex 0 15.54 0.25
endloop
endfacet
facet normal 1 0 0
outer loop
vertex 2.7 14.94 0.25
vertex 2.7 15.54 0
vertex 2.7 15.54 0.25
endloop
endfacet
facet normal 1 0 0
outer loop
vertex 2.7 15.54 0
vertex 2.7 14.94 0.25
vertex 2.7 14.94 0
endloop
endfacet
facet normal 0 -1 0
outer loop
vertex 1.25 14.94 0.25
vertex 2.7 14.94 0
vertex 2.7 14.94 0.25
endloop
endfacet
facet normal 0 -1 0
outer loop
vertex 1.25 14.94 0.25
vertex 1.25 14.94 0
vertex 2.7 14.94 0
endloop
endfacet
facet normal 0 -1 0
outer loop
vertex 0 14.94 0.25
vertex 1.25 14.94 0
vertex 1.25 14.94 0.25
endloop
endfacet
facet normal 0 -1 0
outer loop
vertex 1.25 14.94 0
vertex 0 14.94 0.25
vertex 0 14.94 0
endloop
endfacet
facet normal 0 0 1
outer loop
vertex 1.25 15.54 0.25
vertex 2.7 14.94 0.25
vertex 2.7 15.54 0.25
endloop
endfacet
facet normal 0 0 1
outer loop
vertex 1.25 15.54 0.25
vertex 1.25 14.94 0.25
vertex 2.7 14.94 0.25
endloop
endfacet
facet normal 0 0 1
outer loop
vertex 0 15.54 0.25
vertex 1.25 14.94 0.25
vertex 1.25 15.54 0.25
endloop
endfacet
facet normal 0 0 1
outer loop
vertex 1.25 14.94 0.25
vertex 0 15.54 0.25
vertex 0 14.94 0.25
endloop
endfacet
facet normal 0 0 -1
outer loop
vertex 1.25 14.94 0
vertex 2.7 15.54 0
vertex 2.7 14.94 0
endloop
endfacet
facet normal 0 0 -1
outer loop
vertex 1.25 14.94 0
vertex 1.25 15.54 0
vertex 2.7 15.54 0
endloop
endfacet
facet normal 0 0 -1
outer loop
vertex 1.25 14.94 0
vertex 0 15.54 0
vertex 1.25 15.54 0
endloop
endfacet
facet normal 0 0 -1
outer loop
vertex 0 15.54 0
vertex 1.25 14.94 0
vertex 0 14.94 0
endloop
endfacet
facet normal -1 0 0
outer loop
vertex 0 10.46 0
vertex 0 9.86 0.25
vertex 0 10.46 0.25
endloop
endfacet
facet normal -1 0 0
outer loop
vertex 0 9.86 0.25
vertex 0 10.46 0
vertex 0 9.86 0
endloop
endfacet
facet normal 0 1 0
outer loop
vertex 1.25 10.46 0
vertex 2.7 10.46 0.25
vertex 2.7 10.46 0
endloop
endfacet
facet normal 0 1 0
outer loop
vertex 1.25 10.46 0
vertex 1.25 10.46 0.25
vertex 2.7 10.46 0.25
endloop
endfacet
facet normal 0 1 0
outer loop
vertex 0 10.46 0
vertex 1.25 10.46 0.25
vertex 1.25 10.46 0
endloop
endfacet
facet normal 0 1 0
outer loop
vertex 1.25 10.46 0.25
vertex 0 10.46 0
vertex 0 10.46 0.25
endloop
endfacet
facet normal 1 0 0
outer loop
vertex 2.7 9.86 0.25
vertex 2.7 10.46 0
vertex 2.7 10.46 0.25
endloop
endfacet
facet normal 1 0 0
outer loop
vertex 2.7 10.46 0
vertex 2.7 9.86 0.25
vertex 2.7 9.86 0
endloop
endfacet
facet normal 0 -1 0
outer loop
vertex 1.25 9.86 0.25
vertex 2.7 9.86 0
vertex 2.7 9.86 0.25
endloop
endfacet
facet normal 0 -1 0
outer loop
vertex 1.25 9.86 0.25
vertex 1.25 9.86 0
vertex 2.7 9.86 0
endloop
endfacet
facet normal 0 -1 0
outer loop
vertex 0 9.86 0.25
vertex 1.25 9.86 0
vertex 1.25 9.86 0.25
endloop
endfacet
facet normal 0 -1 0
outer loop
vertex 1.25 9.86 0
vertex 0 9.86 0.25
vertex 0 9.86 0
endloop
endfacet
facet normal 0 0 0.9999999999999999
outer loop
vertex 1.25 10.46 0.25
vertex 2.7 9.86 0.25
vertex 2.7 10.46 0.25
endloop
endfacet
facet normal 0 0 1
outer loop
vertex 1.25 10.46 0.25
vertex 1.25 9.86 0.25
vertex 2.7 9.86 0.25
endloop
endfacet
facet normal 0 0 1
outer loop
vertex 0 10.46 0.25
vertex 1.25 9.86 0.25
vertex 1.25 10.46 0.25
endloop
endfacet
facet normal 0 0 1
outer loop
vertex 1.25 9.86 0.25
vertex 0 10.46 0.25
vertex 0 9.86 0.25
endloop
endfacet
facet normal 0 0 -1
outer loop
vertex 1.25 9.86 0
vertex 2.7 10.46 0
vertex 2.7 9.86 0
endloop
endfacet
facet normal 0 0 -0.9999999999999999
outer loop
vertex 1.25 9.86 0
vertex 1.25 10.46 0
vertex 2.7 10.46 0
endloop
endfacet
facet normal 0 0 -1
outer loop
vertex 1.25 9.86 0
vertex 0 10.46 0
vertex 1.25 10.46 0
endloop
endfacet
facet normal 0 0 -1
outer loop
vertex 0 10.46 0
vertex 1.25 9.86 0
vertex 0 9.86 0
endloop
endfacet
facet normal -1 0 0
outer loop
vertex -2.7 -2.84 0
vertex -2.7 -2.24 0.25
vertex -2.7 -2.24 0
endloop
endfacet
facet normal -1 0 0
outer loop
vertex -2.7 -2.24 0.25
vertex -2.7 -2.84 0
vertex -2.7 -2.84 0.25
endloop
endfacet
facet normal 0 1 0
outer loop
vertex -1.25 -2.24 0
vertex 0 -2.24 0.25
vertex 0 -2.24 0
endloop
endfacet
facet normal 0 1 0
outer loop
vertex -1.25 -2.24 0
vertex -1.25 -2.24 0.25
vertex 0 -2.24 0.25
endloop
endfacet
facet normal 0 1 0
outer loop
vertex -2.7 -2.24 0
vertex -1.25 -2.24 0.25
vertex -1.25 -2.24 0
endloop
endfacet
facet normal 0 1 0
outer loop
vertex -1.25 -2.24 0.25
vertex -2.7 -2.24 0
vertex -2.7 -2.24 0.25
endloop
endfacet
facet normal 1 0 0
outer loop
vertex 0 -2.84 0.25
vertex 0 -2.24 0
vertex 0 -2.24 0.25
endloop
endfacet
facet normal 1 0 0
outer loop
vertex 0 -2.24 0
vertex 0 -2.84 0.25
vertex 0 -2.84 0
endloop
endfacet
facet normal 0 -1 0
outer loop
vertex -1.25 -2.84 0.25
vertex 0 -2.84 0
vertex 0 -2.84 0.25
endloop
endfacet
facet normal 0 -1 0
outer loop
vertex -1.25 -2.84 0.25
vertex -1.25 -2.84 0
vertex 0 -2.84 0
endloop
endfacet
facet normal 0 -1 0
outer loop
vertex -2.7 -2.84 0.25
vertex -1.25 -2.84 0
vertex -1.25 -2.84 0.25
endloop
endfacet
facet normal 0 -1 0
outer loop
vertex -1.25 -2.84 0
vertex -2.7 -2.84 0.25
vertex -2.7 -2.84 0
endloop
endfacet
facet normal 0 0 0.9999999999999999
outer loop
vertex -1.25 -2.24 0.25
vertex 0 -2.84 0.25
vertex 0 -2.24 0.25
endloop
endfacet
facet normal 0 0 1
outer loop
vertex -1.25 -2.24 0.25
vertex -1.25 -2.84 0.25
vertex 0 -2.84 0.25
endloop
endfacet
facet normal 0 0 1
outer loop
vertex -2.7 -2.24 0.25
vertex -1.25 -2.84 0.25
vertex -1.25 -2.24 0.25
endloop
endfacet
facet normal 0 0 1
outer loop
vertex -1.25 -2.84 0.25
vertex -2.7 -2.24 0.25
vertex -2.7 -2.84 0.25
endloop
endfacet
facet normal 0 0 -1
outer loop
vertex -1.25 -2.84 0
vertex 0 -2.24 0
vertex 0 -2.84 0
endloop
endfacet
facet normal 0 0 -0.9999999999999999
outer loop
vertex -1.25 -2.84 0
vertex -1.25 -2.24 0
vertex 0 -2.24 0
endloop
endfacet
facet normal 0 0 -1
outer loop
vertex -2.7 -2.84 0
vertex -1.25 -2.24 0
vertex -1.25 -2.84 0
endloop
endfacet
facet normal 0 0 -1
outer loop
vertex -1.25 -2.24 0
vertex -2.7 -2.84 0
vertex -2.7 -2.24 0
endloop
endfacet
facet normal -1 0 0
outer loop
vertex -2.7 -7.92 0
vertex -2.7 -7.32 0.25
vertex -2.7 -7.32 0
endloop
endfacet
facet normal -1 0 0
outer loop
vertex -2.7 -7.32 0.25
vertex -2.7 -7.92 0
vertex -2.7 -7.92 0.25
endloop
endfacet
facet normal 0 1 0
outer loop
vertex -1.25 -7.32 0
vertex 0 -7.32 0.25
vertex 0 -7.32 0
endloop
endfacet
facet normal 0 1 0
outer loop
vertex -1.25 -7.32 0
vertex -1.25 -7.32 0.25
vertex 0 -7.32 0.25
endloop
endfacet
facet normal 0 1 0
outer loop
vertex -2.7 -7.32 0
vertex -1.25 -7.32 0.25
vertex -1.25 -7.32 0
endloop
endfacet
facet normal 0 1 0
outer loop
vertex -1.25 -7.32 0.25
vertex -2.7 -7.32 0
vertex -2.7 -7.32 0.25
endloop
endfacet
facet normal 1 0 0
outer loop
vertex 0 -7.92 0.25
vertex 0 -7.32 0
vertex 0 -7.32 0.25
endloop
endfacet
facet normal 1 0 0
outer loop
vertex 0 -7.32 0
vertex 0 -7.92 0.25
vertex 0 -7.92 0
endloop
endfacet
facet normal 0 -1 0
outer loop
vertex -1.25 -7.92 0.25
vertex 0 -7.92 0
vertex 0 -7.92 0.25
endloop
endfacet
facet normal 0 -1 0
outer loop
vertex -1.25 -7.92 0.25
vertex -1.25 -7.92 0
vertex 0 -7.92 0
endloop
endfacet
facet normal 0 -1 0
outer loop
vertex -2.7 -7.92 0.25
vertex -1.25 -7.92 0
vertex -1.25 -7.92 0.25
endloop
endfacet
facet normal 0 -1 0
outer loop
vertex -1.25 -7.92 0
vertex -2.7 -7.92 0.25
vertex -2.7 -7.92 0
endloop
endfacet
facet normal 0 0 1
outer loop
vertex -1.25 -7.32 0.25
vertex 0 -7.92 0.25
vertex 0 -7.32 0.25
endloop
endfacet
facet normal 0 0 1
outer loop
vertex -1.25 -7.32 0.25
vertex -1.25 -7.92 0.25
vertex 0 -7.92 0.25
endloop
endfacet
facet normal 0 0 1
outer loop
vertex -2.7 -7.32 0.25
vertex -1.25 -7.92 0.25
vertex -1.25 -7.32 0.25
endloop
endfacet
facet normal 0 0 0.9999999999999999
outer loop
vertex -1.25 -7.92 0.25
vertex -2.7 -7.32 0.25
vertex -2.7 -7.92 0.25
endloop
endfacet
facet normal 0 0 -1
outer loop
vertex -1.25 -7.92 0
vertex 0 -7.32 0
vertex 0 -7.92 0
endloop
endfacet
facet normal 0 0 -1
outer loop
vertex -1.25 -7.92 0
vertex -1.25 -7.32 0
vertex 0 -7.32 0
endloop
endfacet
facet normal 0 0 -0.9999999999999999
outer loop
vertex -2.7 -7.92 0
vertex -1.25 -7.32 0
vertex -1.25 -7.92 0
endloop
endfacet
facet normal 0 0 -1
outer loop
vertex -1.25 -7.32 0
vertex -2.7 -7.92 0
vertex -2.7 -7.32 0
endloop
endfacet
facet normal -1 0 0
outer loop
vertex 0 -4.78 0
vertex 0 -5.38 0.25
vertex 0 -4.78 0.25
endloop
endfacet
facet normal -1 0 0
outer loop
vertex 0 -5.38 0.25
vertex 0 -4.78 0
vertex 0 -5.38 0
endloop
endfacet
facet normal 0 1 0
outer loop
vertex 1.25 -4.78 0
vertex 2.7 -4.78 0.25
vertex 2.7 -4.78 0
endloop
endfacet
facet normal 0 1 0
outer loop
vertex 1.25 -4.78 0
vertex 1.25 -4.78 0.25
vertex 2.7 -4.78 0.25
endloop
endfacet
facet normal 0 1 0
outer loop
vertex 0 -4.78 0
vertex 1.25 -4.78 0.25
vertex 1.25 -4.78 0
endloop
endfacet
facet normal 0 1 0
outer loop
vertex 1.25 -4.78 0.25
vertex 0 -4.78 0
vertex 0 -4.78 0.25
endloop
endfacet
facet normal 1 0 0
outer loop
vertex 2.7 -5.38 0.25
vertex 2.7 -4.78 0
vertex 2.7 -4.78 0.25
endloop
endfacet
facet normal 1 0 0
outer loop
vertex 2.7 -4.78 0
vertex 2.7 -5.38 0.25
vertex 2.7 -5.38 0
endloop
endfacet
facet normal 0 -1 0
outer loop
vertex 1.25 -5.38 0.25
vertex 2.7 -5.38 0
vertex 2.7 -5.38 0.25
endloop
endfacet
facet normal 0 -1 0
outer loop
vertex 1.25 -5.38 0.25
vertex 1.25 -5.38 0
vertex 2.7 -5.38 0
endloop
endfacet
facet normal 0 -1 0
outer loop
vertex 0 -5.38 0.25
vertex 1.25 -5.38 0
vertex 1.25 -5.38 0.25
endloop
endfacet
facet normal 0 -1 0
outer loop
vertex 1.25 -5.38 0
vertex 0 -5.38 0.25
vertex 0 -5.38 0
endloop
endfacet
facet normal 0 0 0.9999999999999999
outer loop
vertex 1.25 -4.78 0.25
vertex 2.7 -5.38 0.25
vertex 2.7 -4.78 0.25
endloop
endfacet
facet normal 0 0 1
outer loop
vertex 1.25 -4.78 0.25
vertex 1.25 -5.38 0.25
vertex 2.7 -5.38 0.25
endloop
endfacet
facet normal 0 0 1
outer loop
vertex 0 -4.78 0.25
vertex 1.25 -5.38 0.25
vertex 1.25 -4.78 0.25
endloop
endfacet
facet normal 0 0 1
outer loop
vertex 1.25 -5.38 0.25
vertex 0 -4.78 0.25
vertex 0 -5.38 0.25
endloop
endfacet
facet normal 0 0 -1
outer loop
vertex 1.25 -5.38 0
vertex 2.7 -4.78 0
vertex 2.7 -5.38 0
endloop
endfacet
facet normal 0 0 -0.9999999999999999
outer loop
vertex 1.25 -5.38 0
vertex 1.25 -4.78 0
vertex 2.7 -4.78 0
endloop
endfacet
facet normal 0 0 -1
outer loop
vertex 1.25 -5.38 0
vertex 0 -4.78 0
vertex 1.25 -4.78 0
endloop
endfacet
facet normal 0 0 -1
outer loop
vertex 0 -4.78 0
vertex 1.25 -5.38 0
vertex 0 -5.38 0
endloop
endfacet
facet normal -1 0 0
outer loop
vertex 0 -9.86 0
vertex 0 -10.46 0.25
vertex 0 -9.86 0.25
endloop
endfacet
facet normal -1 0 0
outer loop
vertex 0 -10.46 0.25
vertex 0 -9.86 0
vertex 0 -10.46 0
endloop
endfacet
facet normal 0 1 0
outer loop
vertex 1.25 -9.86 0
vertex 2.7 -9.86 0.25
vertex 2.7 -9.86 0
endloop
endfacet
facet normal 0 1 0
outer loop
vertex 1.25 -9.86 0
vertex 1.25 -9.86 0.25
vertex 2.7 -9.86 0.25
endloop
endfacet
facet normal 0 1 0
outer loop
vertex 0 -9.86 0
vertex 1.25 -9.86 0.25
vertex 1.25 -9.86 0
endloop
endfacet
facet normal 0 1 0
outer loop
vertex 1.25 -9.86 0.25
vertex 0 -9.86 0
vertex 0 -9.86 0.25
endloop
endfacet
facet normal 1 0 0
outer loop
vertex 2.7 -10.46 0.25
vertex 2.7 -9.86 0
vertex 2.7 -9.86 0.25
endloop
endfacet
facet normal 1 0 0
outer loop
vertex 2.7 -9.86 0
vertex 2.7 -10.46 0.25
vertex 2.7 -10.46 0
endloop
endfacet
facet normal 0 -1 0
outer loop
vertex 1.25 -10.46 0.25
vertex 2.7 -10.46 0
vertex 2.7 -10.46 0.25
endloop
endfacet
facet normal 0 -1 0
outer loop
vertex 1.25 -10.46 0.25
vertex 1.25 -10.46 0
vertex 2.7 -10.46 0
endloop
endfacet
facet normal 0 -1 0
outer loop
vertex 0 -10.46 0.25
vertex 1.25 -10.46 0
vertex 1.25 -10.46 0.25
endloop
endfacet
facet normal 0 -1 0
outer loop
vertex 1.25 -10.46 0
vertex 0 -10.46 0.25
vertex 0 -10.46 0
endloop
endfacet
facet normal 0 0 1
outer loop
vertex 1.25 -9.86 0.25
vertex 2.7 -10.46 0.25
vertex 2.7 -9.86 0.25
endloop
endfacet
facet normal 0 0 0.9999999999999999
outer loop
vertex 1.25 -9.86 0.25
vertex 1.25 -10.46 0.25
vertex 2.7 -10.46 0.25
endloop
endfacet
facet normal 0 0 1
outer loop
vertex 0 -9.86 0.25
vertex 1.25 -10.46 0.25
vertex 1.25 -9.86 0.25
endloop
endfacet
facet normal 0 0 1
outer loop
vertex 1.25 -10.46 0.25
vertex 0 -9.86 0.25
vertex 0 -10.46 0.25
endloop
endfacet
facet normal 0 0 -0.9999999999999999
outer loop
vertex 1.25 -10.46 0
vertex 2.7 -9.86 0
vertex 2.7 -10.46 0
endloop
endfacet
facet normal 0 0 -1
outer loop
vertex 1.25 -10.46 0
vertex 1.25 -9.86 0
vertex 2.7 -9.86 0
endloop
endfacet
facet normal 0 0 -1
outer loop
vertex 1.25 -10.46 0
vertex 0 -9.86 0
vertex 1.25 -9.86 0
endloop
endfacet
facet normal 0 0 -1
outer loop
vertex 0 -9.86 0
vertex 1.25 -10.46 0
vertex 0 -10.46 0
endloop
endfacet
facet normal -1 0 0
outer loop
vertex -2.7 -13 0
vertex -2.7 -12.4 0.25
vertex -2.7 -12.4 0
endloop
endfacet
facet normal -1 0 0
outer loop
vertex -2.7 -12.4 0.25
vertex -2.7 -13 0
vertex -2.7 -13 0.25
endloop
endfacet
facet normal 0 1 0
outer loop
vertex -1.25 -12.4 0
vertex 0 -12.4 0.25
vertex 0 -12.4 0
endloop
endfacet
facet normal 0 1 0
outer loop
vertex -1.25 -12.4 0
vertex -1.25 -12.4 0.25
vertex 0 -12.4 0.25
endloop
endfacet
facet normal 0 1 0
outer loop
vertex -2.7 -12.4 0
vertex -1.25 -12.4 0.25
vertex -1.25 -12.4 0
endloop
endfacet
facet normal 0 1 0
outer loop
vertex -1.25 -12.4 0.25
vertex -2.7 -12.4 0
vertex -2.7 -12.4 0.25
endloop
endfacet
facet normal 1 0 0
outer loop
vertex 0 -13 0.25
vertex 0 -12.4 0
vertex 0 -12.4 0.25
endloop
endfacet
facet normal 1 0 0
outer loop
vertex 0 -12.4 0
vertex 0 -13 0.25
vertex 0 -13 0
endloop
endfacet
facet normal 0 -1 0
outer loop
vertex -1.25 -13 0.25
vertex 0 -13 0
vertex 0 -13 0.25
endloop
endfacet
facet normal 0 -1 0
outer loop
vertex -1.25 -13 0.25
vertex -1.25 -13 0
vertex 0 -13 0
endloop
endfacet
facet normal 0 -1 0
outer loop
vertex -2.7 -13 0.25
vertex -1.25 -13 0
vertex -1.25 -13 0.25
endloop
endfacet
facet normal 0 -1 0
outer loop
vertex -1.25 -13 0
vertex -2.7 -13 0.25
vertex -2.7 -13 0
endloop
endfacet
facet normal 0 0 1
outer loop
vertex -1.25 -12.4 0.25
vertex 0 -13 0.25
vertex 0 -12.4 0.25
endloop
endfacet
facet normal 0 0 1
outer loop
vertex -1.25 -12.4 0.25
vertex -1.25 -13 0.25
vertex 0 -13 0.25
endloop
endfacet
facet normal 0 0 1
outer loop
vertex -2.7 -12.4 0.25
vertex -1.25 -13 0.25
vertex -1.25 -12.4 0.25
endloop
endfacet
facet normal 0 0 1
outer loop
vertex -1.25 -13 0.25
vertex -2.7 -12.4 0.25
vertex -2.7 -13 0.25
endloop
endfacet
facet normal 0 0 -1
outer loop
vertex -1.25 -13 0
vertex 0 -12.4 0
vertex 0 -13 0
endloop
endfacet
facet normal 0 0 -1
outer loop
vertex -1.25 -13 0
vertex -1.25 -12.4 0
vertex 0 -12.4 0
endloop
endfacet
facet normal 0 0 -1
outer loop
vertex -2.7 -13 0
vertex -1.25 -12.4 0
vertex -1.25 -13 0
endloop
endfacet
facet normal 0 0 -1
outer loop
vertex -1.25 -12.4 0
vertex -2.7 -13 0
vertex -2.7 -12.4 0
endloop
endfacet
facet normal -1 0 0
outer loop
vertex -2.7 -18.08 0
vertex -2.7 -17.48 0.25
vertex -2.7 -17.48 0
endloop
endfacet
facet normal -1 0 0
outer loop
vertex -2.7 -17.48 0.25
vertex -2.7 -18.08 0
vertex -2.7 -18.08 0.25
endloop
endfacet
facet normal 0 1 0
outer loop
vertex -1.25 -17.48 0
vertex 0 -17.48 0.25
vertex 0 -17.48 0
endloop
endfacet
facet normal 0 1 0
outer loop
vertex -1.25 -17.48 0
vertex -1.25 -17.48 0.25
vertex 0 -17.48 0.25
endloop
endfacet
facet normal 0 1 0
outer loop
vertex -2.7 -17.48 0
vertex -1.25 -17.48 0.25
vertex -1.25 -17.48 0
endloop
endfacet
facet normal 0 1 0
outer loop
vertex -1.25 -17.48 0.25
vertex -2.7 -17.48 0
vertex -2.7 -17.48 0.25
endloop
endfacet
facet normal 1 0 0
outer loop
vertex 0 -18.08 0.25
vertex 0 -17.48 0
vertex 0 -17.48 0.25
endloop
endfacet
facet normal 1 0 0
outer loop
vertex 0 -17.48 0
vertex 0 -18.08 0.25
vertex 0 -18.08 0
endloop
endfacet
facet normal 0 -1 0
outer loop
vertex -1.25 -18.08 0.25
vertex 0 -18.08 0
vertex 0 -18.08 0.25
endloop
endfacet
facet normal 0 -1 0
outer loop
vertex -1.25 -18.08 0.25
vertex -1.25 -18.08 0
vertex 0 -18.08 0
endloop
endfacet
facet normal 0 -1 0
outer loop
vertex -2.7 -18.08 0.25
vertex -1.25 -18.08 0
vertex -1.25 -18.08 0.25
endloop
endfacet
facet normal 0 -1 0
outer loop
vertex -1.25 -18.08 0
vertex -2.7 -18.08 0.25
vertex -2.7 -18.08 0
endloop
endfacet
facet normal 0 0 1
outer loop
vertex -1.25 -17.48 0.25
vertex 0 -18.08 0.25
vertex 0 -17.48 0.25
endloop
endfacet
facet normal 0 0 1
outer loop
vertex -1.25 -17.48 0.25
vertex -1.25 -18.08 0.25
vertex 0 -18.08 0.25
endloop
endfacet
facet normal 0 0 1
outer loop
vertex -2.7 -17.48 0.25
vertex -1.25 -18.08 0.25
vertex -1.25 -17.48 0.25
endloop
endfacet
facet normal 0 0 1
outer loop
vertex -1.25 -18.08 0.25
vertex -2.7 -17.48 0.25
vertex -2.7 -18.08 0.25
endloop
endfacet
facet normal 0 0 -1
outer loop
vertex 0 -18.08 0
vertex -1.25 -17.48 0
vertex 0 -17.48 0
endloop
endfacet
facet normal 0 0 -1
outer loop
vertex -1.25 -18.08 0
vertex -1.25 -17.48 0
vertex 0 -18.08 0
endloop
endfacet
facet normal 0 0 -1
outer loop
vertex -2.7 -18.08 0
vertex -1.25 -17.48 0
vertex -1.25 -18.08 0
endloop
endfacet
facet normal 0 0 -1
outer loop
vertex -1.25 -17.48 0
vertex -2.7 -18.08 0
vertex -2.7 -17.48 0
endloop
endfacet
facet normal -1 0 0
outer loop
vertex 0 -14.94 0
vertex 0 -15.54 0.25
vertex 0 -14.94 0.25
endloop
endfacet
facet normal -1 0 0
outer loop
vertex 0 -15.54 0.25
vertex 0 -14.94 0
vertex 0 -15.54 0
endloop
endfacet
facet normal 0 1 0
outer loop
vertex 1.25 -14.94 0
vertex 2.7 -14.94 0.25
vertex 2.7 -14.94 0
endloop
endfacet
facet normal 0 1 0
outer loop
vertex 1.25 -14.94 0
vertex 1.25 -14.94 0.25
vertex 2.7 -14.94 0.25
endloop
endfacet
facet normal 0 1 0
outer loop
vertex 0 -14.94 0
vertex 1.25 -14.94 0.25
vertex 1.25 -14.94 0
endloop
endfacet
facet normal 0 1 0
outer loop
vertex 1.25 -14.94 0.25
vertex 0 -14.94 0
vertex 0 -14.94 0.25
endloop
endfacet
facet normal 1 0 0
outer loop
vertex 2.7 -15.54 0.25
vertex 2.7 -14.94 0
vertex 2.7 -14.94 0.25
endloop
endfacet
facet normal 1 0 0
outer loop
vertex 2.7 -14.94 0
vertex 2.7 -15.54 0.25
vertex 2.7 -15.54 0
endloop
endfacet
facet normal 0 -1 0
outer loop
vertex 1.25 -15.54 0.25
vertex 2.7 -15.54 0
vertex 2.7 -15.54 0.25
endloop
endfacet
facet normal 0 -1 0
outer loop
vertex 1.25 -15.54 0.25
vertex 1.25 -15.54 0
vertex 2.7 -15.54 0
endloop
endfacet
facet normal 0 -1 0
outer loop
vertex 0 -15.54 0.25
vertex 1.25 -15.54 0
vertex 1.25 -15.54 0.25
endloop
endfacet
facet normal 0 -1 0
outer loop
vertex 1.25 -15.54 0
vertex 0 -15.54 0.25
vertex 0 -15.54 0
endloop
endfacet
facet normal 0 0 1
outer loop
vertex 1.25 -14.94 0.25
vertex 2.7 -15.54 0.25
vertex 2.7 -14.94 0.25
endloop
endfacet
facet normal 0 0 1
outer loop
vertex 1.25 -14.94 0.25
vertex 1.25 -15.54 0.25
vertex 2.7 -15.54 0.25
endloop
endfacet
facet normal 0 0 1
outer loop
vertex 0 -14.94 0.25
vertex 1.25 -15.54 0.25
vertex 1.25 -14.94 0.25
endloop
endfacet
facet normal 0 0 1
outer loop
vertex 1.25 -15.54 0.25
vertex 0 -14.94 0.25
vertex 0 -15.54 0.25
endloop
endfacet
facet normal 0 0 -1
outer loop
vertex 1.25 -15.54 0
vertex 2.7 -14.94 0
vertex 2.7 -15.54 0
endloop
endfacet
facet normal 0 0 -1
outer loop
vertex 1.25 -15.54 0
vertex 1.25 -14.94 0
vertex 2.7 -14.94 0
endloop
endfacet
facet normal 0 0 -1
outer loop
vertex 1.25 -15.54 0
vertex 0 -14.94 0
vertex 1.25 -14.94 0
endloop
endfacet
facet normal 0 0 -1
outer loop
vertex 0 -14.94 0
vertex 1.25 -15.54 0
vertex 0 -15.54 0
endloop
endfacet
facet normal -1 0 0
outer loop
vertex 0 -20.02 0
vertex 0 -20.62 0.25
vertex 0 -20.02 0.25
endloop
endfacet
facet normal -1 0 0
outer loop
vertex 0 -20.62 0.25
vertex 0 -20.02 0
vertex 0 -20.62 0
endloop
endfacet
facet normal 0 1 0
outer loop
vertex 0 -20.02 0
vertex 2.7 -20.02 0.25
vertex 2.7 -20.02 0
endloop
endfacet
facet normal 0 1 0
outer loop
vertex 2.7 -20.02 0.25
vertex 0 -20.02 0
vertex 0 -20.02 0.25
endloop
endfacet
facet normal 1 0 0
outer loop
vertex 2.7 -20.62 0.25
vertex 2.7 -20.02 0
vertex 2.7 -20.02 0.25
endloop
endfacet
facet normal 1 0 0
outer loop
vertex 2.7 -20.02 0
vertex 2.7 -20.62 0.25
vertex 2.7 -20.62 0
endloop
endfacet
facet normal 0 -1 0
outer loop
vertex 0 -20.62 0.25
vertex 2.7 -20.62 0
vertex 2.7 -20.62 0.25
endloop
endfacet
facet normal 0 -1 0
outer loop
vertex 2.7 -20.62 0
vertex 0 -20.62 0.25
vertex 0 -20.62 0
endloop
endfacet
facet normal 0 0 1
outer loop
vertex 0 -20.02 0.25
vertex 2.7 -20.62 0.25
vertex 2.7 -20.02 0.25
endloop
endfacet
facet normal 0 0 1
outer loop
vertex 2.7 -20.62 0.25
vertex 0 -20.02 0.25
vertex 0 -20.62 0.25
endloop
endfacet
facet normal 0 0 -1
outer loop
vertex 2.7 -20.62 0
vertex 0 -20.02 0
vertex 2.7 -20.02 0
endloop
endfacet
facet normal 0 0 -1
outer loop
vertex 0 -20.02 0
vertex 2.7 -20.62 0
vertex 0 -20.62 0
endloop
endfacet
endsolid JSxCAD
